<svg xmlns="http://www.w3.org/2000/svg" viewBox="0 0 256 256">
   <path fill="#f7931a"
      d="M252.17 158.964c-17.097 68.572-86.557 110.304-155.145 93.204-68.56-17.095-110.296-86.552-93.191-155.119C20.924 28.47 90.384-13.265 158.95 3.83c68.583 17.096 110.316 86.56 93.217 155.135z" />
   <path fill="#fff"
      d="M184.449 109.763c2.548-17.034-10.422-26.19-28.158-32.299l5.754-23.074-14.048-3.5-5.6 22.467c-3.694-.92-7.486-1.789-11.255-2.649l5.641-22.615-14.039-3.5-5.756 23.067c-3.056-.696-6.058-1.383-8.97-2.108l.016-.073-19.372-4.837-3.737 15.002s10.422 2.389 10.203 2.536c5.688 1.42 6.717 5.185 6.546 8.169l-6.554 26.287c.392.1.9.243 1.46.468-.468-.116-.967-.243-1.484-.367l-9.186 36.824c-.696 1.728-2.46 4.322-6.437 3.337.14.204-10.21-2.548-10.21-2.548l-6.974 16.078 18.28 4.557c3.4.852 6.734 1.745 10.015 2.584l-5.813 23.338 14.032 3.5 5.756-23.09c3.834 1.04 7.553 2 11.195 2.904l-5.737 22.982 14.048 3.5 5.812-23.295c23.954 4.533 41.966 2.706 49.547-18.958 6.109-17.442-.304-27.503-12.906-34.063 9.179-2.117 16.092-8.153 17.936-20.622zm-32.095 45c-4.342 17.443-33.712 8.014-43.234 5.65l7.714-30.92c9.521 2.377 40.057 7.08 35.52 25.27zm4.344-45.253c-3.96 15.866-28.405 7.805-36.335 5.829l6.994-28.042c7.93 1.976 33.466 5.665 29.342 22.213z" />
</svg>