<svg xmlns="http://www.w3.org/2000/svg" viewBox="0 0 327.68 327.68">
   <path fill="#44c0c6" d="M3.3460000000000036 163.906a160.494 160.494 0 10320.988 0 160.494 160.494 0 10-320.988 0z" />
   <path
      d="M163.84 327.68c-22.095 0-43.56-4.34-63.767-12.886-19.511-8.248-37.035-20.074-52.074-35.113-15.039-15.04-26.865-32.563-35.113-52.074C4.339 207.4 0 185.968 0 163.84s4.34-43.56 12.886-63.767c8.248-19.511 20.074-37.035 35.113-52.074 15.04-15.039 32.563-26.865 52.074-35.113C120.28 4.339 141.712 0 163.84 0s43.56 4.439 63.767 12.985c19.511 8.249 37.035 20.075 52.074 35.114 15.039 15.039 26.865 32.562 35.113 52.073 8.547 20.207 12.886 41.64 12.886 63.767 0 22.128-4.34 43.56-12.886 63.767-8.248 19.512-20.074 37.035-35.113 52.074-15.04 15.04-32.563 26.865-52.074 35.113-20.207 8.48-41.639 12.787-63.767 12.787zm0-320.955c-21.234 0-41.805 4.14-61.183 12.355-18.716 7.917-35.511 19.247-49.954 33.69-14.443 14.442-25.772 31.237-33.689 49.953-8.182 19.379-12.356 39.95-12.356 61.183 0 21.234 4.141 41.805 12.356 61.184 7.917 18.716 19.246 35.51 33.69 49.953 14.442 14.443 31.237 25.772 49.953 33.69 19.378 8.181 39.95 12.355 61.183 12.355 21.234 0 41.805-4.14 61.183-12.356 18.716-7.917 35.511-19.246 49.954-33.689 14.443-14.443 25.772-31.237 33.689-49.953 8.182-19.379 12.356-39.95 12.356-61.184 0-21.233-4.141-41.804-12.356-61.183-7.917-18.716-19.246-35.51-33.69-49.954-14.442-14.442-31.237-25.772-49.953-33.689-19.378-8.182-39.95-12.355-61.183-12.355z" />
   <path fill="#60c13d"
      d="M168.312 3.644c-19.71 23.353-37.565 54.094 5.002 54.094 68.703 0 50.815 50.616-26.103 54.227-76.951 3.61-55.254 57.87-11.86 63.27 26.7 3.346 36.24 16.928 39.686 29.847v.496c0 7.09.695 13.847 1.92 20.108v.132c0 .795.166 1.524.465 2.153 4.703 21.367 15.867 25.574 28.918 25.574 17.292 0 28.886-36.074 30.973-55.917 3.213-30.078 33.755-29.88 31.834-67.643-.563-10.898 27.925-11.295 49.092-9.606C299.656 54.326 239.864 5.599 168.312 3.644z" />
   <path
      d="M206.307 256.923c-12.058 0-26.567-3.18-32.099-27.858a9.039 9.039 0 01-.596-3.015 110.687 110.687 0 01-1.921-20.438v-.1c-4.307-15.569-16.364-24.413-36.77-26.964-11.56-1.458-22.327-6.26-30.277-13.549-7.884-7.221-12.19-16.231-11.859-24.745.232-5.962 2.783-14.509 13.714-21.399 9.408-5.93 23.056-9.341 40.546-10.17 25.341-1.192 41.076-7.254 49.821-12.157 10.137-5.664 16.1-12.786 15.934-19.014-.166-7.586-10.633-16.43-39.486-16.43-15.04 0-24.414-3.843-27.925-11.395-2.75-5.93-1.656-13.88 3.28-23.586 3.643-7.155 9.407-15.437 17.125-24.58a3.333 3.333 0 012.617-1.159c17.888.497 35.412 3.843 52.074 9.971 16.132 5.93 31.171 14.377 44.72 25.076a164.653 164.653 0 0134.583 37.333c9.673 14.41 16.96 30.145 21.631 46.807a3.329 3.329 0 01-.63 3.014c-.695.828-1.755 1.292-2.815 1.193-23.022-1.855-40.115-.265-44.653 4.14-.829.796-.895 1.458-.895 1.988 1.127 22.194-8.612 32.53-17.225 41.64-6.824 7.254-13.284 14.078-14.609 26.5-1.225 11.56-5.2 25.838-10.103 36.438-6.79 14.708-15.138 22.46-24.182 22.46zM169.803 6.99c-15.304 18.384-21.83 32.529-18.418 39.883 2.915 6.228 13.515 7.553 21.929 7.553 14.244 0 25.573 2.087 33.656 6.194 7.85 4.008 12.29 9.938 12.422 16.729.199 8.877-6.824 17.987-19.312 24.943-9.375 5.234-26.104 11.727-52.737 12.986-29.482 1.39-47.403 10.799-47.966 25.208-.265 6.56 3.28 13.714 9.706 19.61 6.957 6.394 16.43 10.601 26.633 11.86 23.255 2.915 37.565 13.78 42.467 32.297.067.265.1.564.1.862v.497c0 6.558.63 13.117 1.855 19.478.033.198.066.43.066.629v.132c0 .299.066.564.166.795.1.2.165.431.232.663 4.173 19.047 13.316 22.956 25.705 22.956 8.315 0 14.973-11.66 18.186-18.583 5.599-12.124 8.646-26.104 9.507-34.352 1.557-14.641 9.11-22.625 16.364-30.343 8.448-8.944 16.43-17.424 15.437-36.77-.132-2.65.861-5.101 2.882-7.055 3.644-3.512 10.667-5.632 21.532-6.427 7.983-.596 16.563-.331 23.453.066a156.492 156.492 0 00-19.412-40.38 157.317 157.317 0 00-33.192-35.842 155.645 155.645 0 00-42.93-24.05c-15.47-5.697-31.735-8.91-48.331-9.54z" />
</svg>