<svg xmlns="http://www.w3.org/2000/svg" viewBox="0 0 256 256">
   <path fill="#b3d234"
      d="M71.151 38.015c4.896-5.579 9.358-10.34 13.62-14.328C12.728 21.349 33.7 73.83 10.223 127.164c-27.034 61.423 3.18 84.83 48.204 92.124-6.24-7.422-11.336-15.913-15.214-25.078-29.19-37.034-17.442-104.503 27.938-156.195" />
   <path fill="#0095d9"
      d="M244.506 103.445c-6.704 19.026-19.007 40.375-36.4 61.387-13.556 16.373-28.628 29.267-44.183 38.604-17.983 11.74-40.292 18.668-65.234 18.668-13.962 0-27.689-.782-40.263-2.819 7.43 8.828 16.46 16.157 26.963 21.27 65.134 31.742 69.247-27.222 138.16-57.141 38.697-16.803 38.84-49.648 20.957-79.97" />
   <path fill="#eee809"
      d="M163.9 42.085c9.607 1.764 18.723 4.948 26.885 9.595 21.875 12.471 41.8 31.554 53.72 51.763 11.734-33.304 6.27-59.487-19.406-64.227-28.215-5.2-50.275-6.87-71.474-21.787-26.11-18.373-48.995-12.313-68.856 6.26 1.402.044 2.832.108 4.305.194 27.554 1.635 53.848 7.043 74.827 18.202" />
   <path fill="#51b849"
      d="M71.151 38.015C25.771 89.707 14.023 157.176 43.213 194.21c-13.108-31.003-12.197-69.671 6.277-100.544 24.593-41.107 73.922-59.028 114.413-51.577-20.979-11.166-47.273-16.566-74.82-18.208-1.48-.087-2.91-.144-4.312-.194-4.262 3.987-8.724 8.749-13.62 14.328" />
   <path fill="#00845d"
      d="M190.784 51.683c-8.162-4.654-17.278-7.831-26.885-9.596 27.625 14.695 46.006 39.386 45.8 78.714-.185 34.122-17.677 64.278-45.779 82.637 15.556-9.337 30.635-22.232 44.185-38.604 17.398-21.012 29.695-42.362 36.399-61.388-11.92-20.209-31.845-39.3-53.72-51.763" />
   <path fill="#005121"
      d="M159.355 184.74c-31.19 20.194-72.776 11.187-92.894-20.123-20.117-31.311-10.168-71.629 20.04-93.272 33.78-24.197 77.103-14.652 92.894 20.123 15.399 33.906 11.143 73.077-20.04 93.272m4.548-142.655c-40.491-7.444-89.82 10.47-114.413 51.577-18.474 30.873-19.392 69.549-6.277 100.544 3.878 9.165 8.966 17.663 15.214 25.086 12.575 2.036 26.302 2.81 40.256 2.81 24.95 0 47.259-6.927 65.234-18.666 28.109-18.352 45.6-48.515 45.778-82.637.214-39.328-18.175-64.02-45.792-78.714" />
</svg>