<svg xmlns="http://www.w3.org/2000/svg" viewBox="0 0 256 256">
   <circle cx="128" cy="128" r="128" fill="#50af95" />
   <path fill="#fff" fill-rule="evenodd"
      d="M144.18 133.5c-.904.068-5.573.347-15.988.347-8.284 0-14.165-.249-16.229-.347-32.013-1.408-55.908-6.98-55.908-13.653 0-6.672 23.895-12.237 55.908-13.668v21.771c2.094.15 8.088.505 16.372.505 9.94 0 14.918-.414 15.815-.497v-21.763c31.945 1.423 55.787 6.996 55.787 13.653s-23.835 12.23-55.787 13.646zm0-29.558V84.462h44.581V54.751H67.381V84.46h44.575v19.476c-36.23 1.663-63.476 8.84-63.476 17.44 0 8.6 27.246 15.77 63.476 17.441v62.43h32.216v-62.453c36.148-1.664 63.348-8.833 63.348-17.426 0-8.591-27.178-15.76-63.348-17.432zm0 0z" />
</svg>