<svg xmlns="http://www.w3.org/2000/svg" viewBox="0 0 256 256">
  <circle cx="128" cy="128" r="128" fill="#1f9356" />
  <path fill="#fff"
    d="M170.4 152.1a38.4 38.4 0 01-2.9 15.1 32.6 32.6 0 01-8.5 11.6 39.1 39.1 0 01-13.2 7.8 63.1 63.1 0 01-17.1 3.8l-2 20.9a2.9 2.9 0 01-.5 1.3 2.5 2.5 0 01-1.2 1 7.7 7.7 0 01-2.6.6 21.7 21.7 0 01-4 .3 32.5 32.5 0 01-5-.3 12.6 12.6 0 01-3-.8 2.9 2.9 0 01-1.4-1.5 3 3 0 01-.2-1.9l2.1-19.8a58 58 0 01-7.9-1.6 70.5 70.5 0 01-6.8-2 53.1 53.1 0 01-5.2-2.3 11.7 11.7 0 01-3.3-2.3 6 6 0 01-1.6-3.3 27.4 27.4 0 01-.5-6.5 44.5 44.5 0 01.2-5.5 12.2 12.2 0 01.6-3.3 3.6 3.6 0 011.3-1.6 3.1 3.1 0 011.7-.5 8.2 8.2 0 013.7 1.5 49.7 49.7 0 006.2 3.2 61.9 61.9 0 009.3 3.3 52.4 52.4 0 0012.7 1.4c7.6 0 13.3-1.4 17-4.2a13.7 13.7 0 005.6-11.3 12 12 0 00-2.4-7.7 22.7 22.7 0 00-6.4-5.3 51 51 0 00-9.1-4.1l-10.3-3.9a106.4 106.4 0 01-10.3-4.8 42.2 42.2 0 01-9-6.7A29.8 29.8 0 0190 113a36 36 0 01-2.4-13.9 33.9 33.9 0 012.5-13.3 29.8 29.8 0 017-10.5 36.1 36.1 0 0111.3-7.3 55.5 55.5 0 0115.2-3.7l1.9-19.7a5 5 0 01.4-1.3 3.3 3.3 0 011.3-.9 10.9 10.9 0 012.5-.7l4.1-.2a34.3 34.3 0 015 .3 12.3 12.3 0 013.1.8 2.9 2.9 0 011.4 1.5 5.4 5.4 0 01.3 1.9l-2 18.5c1.8.2 3.8.6 5.8 1a41 41 0 015.6 1.7 36.9 36.9 0 014.8 1.9 9.1 9.1 0 013 1.9 6.1 6.1 0 011.3 1.6 10.3 10.3 0 01.7 2.1c.1.8.2 1.8.3 2.9s.1 2.5.1 4 0 3.6-.1 4.9a9.8 9.8 0 01-.6 3 2.1 2.1 0 01-.9 1.4 2 2 0 01-1.1.3 9.1 9.1 0 01-3.7-1.2c-1.7-.9-3.7-1.8-6-2.8s-5.2-1.9-8.2-2.7a36.8 36.8 0 00-10.3-1.3 35.6 35.6 0 00-8.6 1 18 18 0 00-5.9 2.7 11 11 0 00-3.3 4.2 14.1 14.1 0 00-1.1 5.4 12.2 12.2 0 002.4 7.7 21.8 21.8 0 006.5 5.4 60.5 60.5 0 009.2 4.1l10.5 3.9a107.1 107.1 0 0110.4 4.7 35.7 35.7 0 019.1 6.7 29.2 29.2 0 016.5 9.5 34.8 34.8 0 012.4 13.6z" />
</svg>