<svg xmlns="http://www.w3.org/2000/svg" viewBox="0 0 256 256">
   <path fill="#005a9c" stroke="#005a9c" stroke-width="1.10793672"
      d="M128 255.446c70.386 0 127.446-57.06 127.446-127.446C255.446 57.617 198.386.554 128 .554S.554 57.617.554 128c0 70.386 57.06 127.446 127.446 127.446z" />
   <path fill="#e7d468" stroke="#e7d468" stroke-width="1.6619050800000001"
      d="M61.286 152.916l4.4-54.392c-.395-21.318-7.477-23.341-7.477-23.341L85.914 58.49c26.302 15.16 41.884-4.714 41.884-4.714 23.296 22.307 43.025 5.141 43.025 5.141l28.872 16.484c-9.274 10.036-7.802 17.39-7.802 17.39l2.38 59.411-65.695-48.34z" />
   <path fill="#e7d468" stroke="#e7d468" stroke-width="1.10653781"
      d="M128.462 216.545s7.263-10.4 30.24-15.866c0 0 15.848-.536 29.82-22.292l-60.364-42.734-59.31 42.087c14.828 21.866 30.742 22.32 30.742 22.32 24.369 8.341 28.872 16.485 28.872 16.485z" />
   <path fill="#3698d4" stroke="#3698d4" stroke-width="1.10793672"
      d="M104.848 182.945c2.393 0 4.334-2.017 4.334-4.51 0-2.488-1.94-4.508-4.334-4.508-2.393 0-4.334 2.02-4.334 4.509 0 2.492 1.94 4.509 4.334 4.509z" />
   <path fill="#3698d4"
      d="M127.357 63.488l-2.005 13.78-4.741-4.219-29.765 6.265s-5.554 8.04-10.906-.3l-3.557.753s.408 6 7.106 9.469l.191.004a2.381 2.381 0 00-.684 1.678c0 .56.189 1.073.506 1.478l-12.644 22.368s11.895 20.736 28.234 1.072L87.158 92.358c.3-.398.478-.898.478-1.44 0-.616-.232-1.178-.611-1.599l.428.01s5.229-.788 6.595-5.904l30.297-.116.041-.009-.443 10.439c1.063 3.68 4.033 3.307 4.033 3.307 3.59.373 3.963-3.334 3.963-3.34l-1.237-10.28h30.215c1.327 5.124 6.625 6.315 6.625 6.315l.565-.009a2.381 2.381 0 00-.686 1.68c0 .63.242 1.202.635 1.626l-12.11 23.367c16.18 19.792 28.238-.848 28.238-.848l-12.599-22.712a2.38 2.38 0 00.476-1.432 2.38 2.38 0 00-.738-1.73h.182c6.728-3.419 7.18-9.413 7.18-9.413l-3.548-.785c-5.42 8.298-10.91.214-10.91.214l-29.708-6.5-5.196 4.059-1.84-13.398zM86.433 92.992l11.16 21.928-11.968.082.054-21.747c.27-.043.523-.134.754-.263zm-2.224.006c.091.05.187.093.285.131l.017 21.754H71.879zm86.587.52l12.228 21.923-12.494-.002-.076-21.774c.119-.039.232-.088.342-.145zm-1.74.156c.11.035.226.062.343.08l-.076 21.747h-11.871zm-6.9 70.805c-6.343.015-8.013 4.582-8.307 11.08l-.053-.06s-2.288.373-2.783-1.488c0 0-.497 1.611-2.6 1.547l-66.045.064c-4.05 3.28.038 5.883.038 5.883h3.222v9.287h7.428v-7.43h-2.971l.061 1.734h-1.672v-3.468h10.473l-.02 3.468H97.39l-.061-1.744-2.974-.013-.035 7.43 7.468.087v-9.166l47.18-.062c1.612.061 2.228 1.922 2.228 1.922.434-2.17 2.664-1.922 2.664-1.922.495 6.201 2.605 10.985 8.359 11.023 6.934.041 8.045-6.826 8.045-14.613s-1.357-13.582-8.107-13.56zm.032 2.295c2.383-.049 4.4 2.48 4.557 5.782.109 2.352-.75 4.484-2.107 5.652l-.235.148c1.343.95 2.307 2.807 2.434 5.028.188 3.409-1.666 6.383-4.145 6.648-2.48.262-4.644-2.286-4.838-5.69-.131-2.353.712-4.497 2.059-5.687l.23-.224c-1.334-.973-2.285-2.847-2.39-5.071-.16-3.409 1.723-6.354 4.203-6.574.078-.007.155-.01.232-.012z" />
   <path fill="none" stroke="#3698d4" stroke-width="1.10793672"
      d="M85.683 91.508l-.06 23.484 11.968-.082zm-1.19.975l-12.615 22.39h12.63zm85.957.408l.078 22.537 12.494.001zm-1.051.123l-11.95 22.478h11.872z" />
   <path fill="#e7d468"
      d="M85.347 89.172c-.871 0-1.576.762-1.576 1.707 0 .944.705 1.707 1.576 1.707.871 0 1.576-.763 1.576-1.707 0-.945-.705-1.707-1.576-1.707zm84.424.494c-.87 0-1.575.765-1.575 1.707 0 .944.704 1.707 1.575 1.707.872 0 1.576-.763 1.576-1.707 0-.942-.704-1.707-1.576-1.707z" />
   <path fill="none" stroke="#fff" stroke-width="1.6619050800000001"
      d="M128.154 252.036c68.223 0 123.528-55.308 123.528-123.528S196.377 4.98 128.154 4.98C59.934 4.98 4.626 60.287 4.626 128.508c0 68.22 55.307 123.528 123.528 123.528zm0-29.784c51.772 0 93.744-41.972 93.744-93.744s-41.972-93.744-93.744-93.744S34.41 76.736 34.41 128.508s41.972 93.744 93.744 93.744z" />
   <g>
      <path fill="#3698d4" stroke="#3698d4" stroke-width=".82955363"
         d="M68.448 177.695c-4.368-6.099-7.898-15.216-7.898-23.415l68.025-49.312 66.373 48.894c0 8.201-1.587 18.426-5.959 24.524l-60.821-43.842z" />
      <path fill="#fff" stroke="#fff" stroke-width=".5553672700000001"
         d="M120.432 12.19l-12.713 1.529.276 3.678.445-.053c-.038-.709.061-1.294.291-1.75.233-.431.55-.757.93-.945.29-.153.779-.257 1.507-.346l1.877-.228 1.426 11.87c.105.869.08 1.441-.053 1.722-.233.431-.681.676-1.339.752l-.561.072.051.42 6.615-.797-.05-.422-.54.068c-.61.073-1.076-.039-1.398-.332-.24-.211-.402-.785-.52-1.748l-1.427-11.87 2.18-.262c.658-.08 1.185-.048 1.61.115.401.166.768.457 1.059.875.172.265.344.697.494 1.344l.444-.055zm16.689.057c-1.441.127-2.764.648-3.949 1.555-1.813 1.427-2.843 3.375-3.063 5.845-.22 2.425.33 4.467 1.651 6.127 1.321 1.662 3.042 2.576 5.21 2.77 2.115.192 3.976-.424 5.622-1.866 1.621-1.42 2.554-3.329 2.765-5.68.207-2.308-.35-4.303-1.693-5.966-1.344-1.663-3.04-2.597-5.064-2.779-.505-.045-.999-.048-1.48-.005zm1.195.81c1.48.134 2.589.756 3.342 1.866.941 1.414 1.278 3.459 1.039 6.117-.224 2.47-.859 4.242-1.924 5.285-1.044 1.066-2.294 1.522-3.752 1.392-1.389-.125-2.426-.74-3.179-1.873-.957-1.465-1.324-3.466-1.094-6.007.223-2.495.912-4.33 2.086-5.53.941-.958 2.093-1.375 3.482-1.25zm11.364.932l-.102.414.553.135c.367.093.689.267.963.529.195.195.292.39.34.594.035.252-.047.791-.235 1.547l-2.416 9.847c-.227.916-.46 1.466-.699 1.651-.367.3-.867.37-1.49.218l-.549-.134-.102.412 6.516 1.603.103-.416-.552-.133a2.103 2.103 0 01-.942-.525 1.119 1.119 0 01-.363-.6c-.035-.252.049-.791.234-1.548l1.18-4.797 2.75.679c.507.124.878.29 1.098.487.243.205.395.463.466.773.07.31.058.766-.089 1.363l.412.102 1.267-5.162-.412-.1c-.3.826-.641 1.324-1.008 1.528-.364.201-.859.226-1.5.066l-2.755-.676 1.466-5.965 3.35.823c.779.192 1.36.41 1.688.658.332.23.59.558.765.94.191.412.291.996.301 1.753l.39.1.66-3.393zm-45.583.307l-5.295 1.507.119.407.52-.145c.616-.176 1.091-.14 1.455.102.268.166.544.702.81 1.634l2.48 8.703-12.45-8.687-4.043 1.152.115.407c.43-.124.756-.191 1.002-.188.478.038.837.084 1.108.176.278.118.71.338 1.291.74l2.982 10.475c.243.84.307 1.41.217 1.707-.163.463-.566.775-1.223.963l-.523.148.115.408 5.295-1.506-.114-.408-.548.151c-.59.17-1.068.135-1.454-.098-.269-.17-.52-.712-.785-1.643l-2.642-9.271 13.365 9.311.408-.116-3.619-12.701c-.24-.84-.303-1.412-.217-1.71.163-.462.564-.774 1.203-.956l.547-.154zm66.84 5.875l-1.701 3.275.406.188c.341-.622.73-1.069 1.168-1.334.424-.245.867-.353 1.289-.311.328.022.801.186 1.465.496l1.713.795-5.033 10.844c-.367.792-.692 1.267-.95 1.433-.428.245-.936.218-1.536-.06l-.514-.24-.182.386 6.045 2.805.178-.385-.492-.23c-.558-.258-.895-.596-1.01-1.014-.096-.306.067-.883.475-1.76l5.033-10.843 1.994.925c.6.277 1.031.58 1.306.944.252.351.415.792.44 1.3.01.315-.073.772-.287 1.401l.406.19 1.404-3.413zm-87 .494l-10.943 5.097.179.387.514-.24c.578-.268 1.065-.338 1.432-.172.29.125.638.641 1.056 1.541l4.303 9.23c.32.686.493 1.177.506 1.432a.836.836 0 01-.207.721c-.23.29-.513.527-.832.677l-.514.24.178.387 10.943-5.1-.437-4.124-.428.197c-.038 1.088-.191 1.94-.418 2.57-.185.5-.427.874-.74 1.151-.316.278-.86.61-1.655.98l-2.398 1.116c-.408.189-.687.269-.852.24a.543.543 0 01-.45-.178c-.124-.099-.326-.476-.616-1.098l-2.182-4.687 3.122-1.459c.6-.278 1.06-.414 1.43-.402.34-.002.62.098.87.295.198.144.49.554.918 1.189l.383-.178-2.303-4.947-.388.178c.339.836.407 1.48.193 1.972-.17.363-.645.745-1.46 1.125l-3.126 1.455-2.615-5.611 3.898-1.816c.686-.319 1.195-.508 1.524-.53.434-.02.792.076 1.092.274.332.21.72.654 1.222 1.334l.405-.188zm101.886 6.59l-.24.355.473.315c.294.198.533.476.721.83.131.23.156.445.117.675-.054.248-.305.708-.752 1.375l-5.658 8.41c-.53.781-.938 1.218-1.225 1.31-.447.154-.946.049-1.475-.309l-.47-.315-.235.352 5.565 3.744.236-.35-.47-.316a2.1 2.1 0 01-.704-.817 1.135 1.135 0 01-.133-.689c.054-.249.318-.725.752-1.373l2.666-3.96 6.018 4.05-2.666 3.96c-.53.784-.938 1.222-1.225 1.31-.466.141-.944.049-1.474-.309l-.469-.315-.236.354 5.566 3.746.236-.354-.451-.304a2.27 2.27 0 01-.744-.842 1.207 1.207 0 01-.115-.676c.054-.246.32-.725.754-1.373l5.658-8.408c.421-.625.754-1.03.961-1.174a.862.862 0 01.732-.195c.367.048.71.169 1.022.38l.455.303.236-.355-5.566-3.744-.24.353.472.315c.293.198.534.477.703.818.15.242.175.459.137.688-.054.25-.305.706-.752 1.373l-2.523 3.742-6.014-4.049 2.516-3.744c.422-.628.75-1.03.961-1.174a.984.984 0 01.732-.195c.364.048.71.167 1.004.365l.473.32.236-.355zm-116.205.127l-3.631 2.558 2.46 13.231-11.661-6.762-3.67 2.58.244.348c.523-.367.95-.581 1.295-.623.313-.048.577.001.797.107.31.156.668.539 1.064 1.1l5.885 8.367c.5.715.748 1.237.764 1.543-.003.492-.28.92-.82 1.3l-.463.323.244.348 4.502-3.166-.246-.348-.463.326c-.5.354-.962.476-1.406.383-.31-.07-.724-.5-1.282-1.29l-6.023-8.564 12.53 7.305.312-.217-2.655-14.248 6.018 8.561c.504.715.754 1.23.766 1.537.02.479-.278.92-.817 1.3l-.465.33.246.346 5.487-3.861-.246-.349-.442.314c-.524.367-.987.492-1.408.383-.31-.07-.746-.486-1.301-1.28l-5.886-8.367c-.504-.715-.753-1.232-.766-1.541 0-.492.278-.916.84-1.312l.443-.313zm132.228 11.099l-.291.311.414.385c.469.435.718.859.698 1.26-.002.32-.353.835-1.026 1.562l-6.933 7.461c-.513.552-.903.902-1.133 1.01a.849.849 0 01-.746.078 2.3 2.3 0 01-.94-.516l-.416-.387-.287.313 8.842 8.213 3.658-1.955-.348-.323c-1.022.373-1.866.556-2.533.582-.536.019-.973-.067-1.347-.252-.376-.189-.891-.57-1.532-1.166l-1.941-1.8c-.329-.306-.503-.532-.541-.698a.542.542 0 010-.486c.045-.153.315-.477.78-.982l3.521-3.793 2.527 2.35c.485.45.786.823.914 1.171.13.313.14.613.051.916-.057.236-.326.664-.754 1.3l.31.29 3.715-4-.31-.289c-.648.626-1.223.932-1.756.916-.402-.016-.93-.317-1.588-.926l-2.529-2.348 4.213-4.535 3.15 2.926c.555.514.919.918 1.065 1.215.182.393.226.76.156 1.115-.07.386-.334.912-.774 1.633l.327.303 2.228-2.639zM50.33 41.77l-9.023 9.088 2.5 2.713.316-.316c-.47-.533-.757-1.05-.859-1.55-.083-.486-.034-.936.148-1.323.134-.3.449-.684.963-1.205l1.33-1.34 8.485 8.42c.623.616.958 1.084 1.025 1.384.086.485-.112.95-.578 1.42l-.402.405.304.295 4.694-4.725-.303-.3-.383.386c-.43.434-.865.639-1.3.607-.318-.016-.802-.368-1.491-1.047l-8.484-8.423 1.548-1.56c.466-.468.9-.77 1.332-.905a2.398 2.398 0 011.37.029c.3.099.704.33 1.224.746l.315-.32zm167.953 13.375l-3.086 2.02.26.363c.603-.374 1.16-.571 1.67-.59.492-.007.928.115 1.279.36.274.18.603.553 1.03 1.15l1.11 1.53-9.7 6.99c-.708.514-1.226.766-1.532.785-.492.007-.922-.267-1.308-.803l-.332-.461-.344.25 3.896 5.402.346-.248-.32-.441c-.357-.498-.488-.957-.383-1.381.067-.31.488-.734 1.277-1.3l9.698-6.99 1.283 1.782c.386.536.616 1.015.676 1.465.048.43-.025.893-.252 1.346-.146.281-.443.639-.938 1.082l.264.365 2.892-2.289zM39.138 56.196a4.472 4.472 0 00-2.284.793c-.658.479-1.49 1.39-2.502 2.73l-3.429 4.547.342.256.355-.473c.354-.47.759-.731 1.193-.757.335-.012.878.25 1.67.847l8.096 6.098c.715.543 1.126.939 1.215 1.213.17.482.055.988-.344 1.515l-.355.473.338.256 4.037-5.359-.338-.256-.369.492c-.354.472-.744.712-1.178.738-.335.016-.878-.246-1.672-.842l-3.641-2.746c.073-.096.163-.175.233-.27l.185-.247c.143-.188.329-.431.549-.766l9.049.164 2.516-3.343-.338-.254c-.587.623-1.169 1.039-1.762 1.275-.594.201-1.525.302-2.795.26l-5.535-.119c.555-1.206.757-2.298.56-3.217-.182-.935-.678-1.69-1.43-2.262a3.589 3.589 0 00-2.366-.746zm-.932 2.211c.621.048 1.222.286 1.816.734.794.596 1.226 1.398 1.28 2.387.09.983-.335 2.051-1.231 3.242-.042.057-.1.13-.158.207-.07.092-.14.19-.225.301l-5.21-3.922c.342-.69.643-1.203.914-1.564.597-.791 1.325-1.247 2.187-1.369.211-.025.42-.032.627-.016zm189.482 10.11l-.377.195.269.527c.271.523.328.998.162 1.4-.134.31-.605.684-1.486 1.137l-9.022 4.623c-.798.408-1.334.607-1.621.566-.508-.058-.914-.38-1.214-.97l-.27-.524-.377.192 3.06 5.97.376-.191-.276-.55c-.271-.523-.317-.978-.154-1.38.134-.307.606-.684 1.49-1.138l4.057-2.08c.054.106.085.223.14.328.054.106.1.19.14.273.11.21.25.485.454.83l-4.092 8.074 1.905 3.721.38-.195c-.304-.8-.428-1.506-.38-2.141.077-.626.396-1.505.986-2.631l2.518-4.927c.846 1.025 1.74 1.683 2.652 1.906.92.246 1.818.13 2.658-.301a3.6 3.6 0 001.705-1.803c.319-.776.405-1.588.28-2.402-.143-.801-.6-1.947-1.366-3.44zm1.072 4.472c.47.606.804 1.101 1.008 1.5.454.884.547 1.736.279 2.566-.278.804-.831 1.432-1.715 1.885-.88.453-1.79.496-2.703.113-.922-.351-1.702-1.198-2.38-2.523-.031-.064-.077-.145-.118-.231a20.23 20.23 0 00-.176-.336zM25.05 74.026l-.188.357 8.88 10.856c.785.945 1.225 1.682 1.385 2.193.08.255.008.699-.193 1.34l.377.195 2.29-4.371-.378-.199c-.393.648-.727 1.031-.992 1.133-.277.121-.502.139-.731.02-.252-.13-.585-.467-1.007-.98l-1.696-2.062 2.817-5.38 2.394.214c.791.067 1.35.172 1.643.326.23.12.364.326.43.6.048.265-.043.695-.305 1.25l.375.199 2.86-5.463-.376-.2c-.338.547-.715.906-1.152 1.079-.447.191-1.229.21-2.358.125zm2.819 2.41l6.825.613-2.475 4.73zm-3.886 7.373a3.718 3.718 0 00-1.262.192c-.84.297-1.52.775-2.088 1.423-.543.657-1.058 1.65-1.537 2.959L17.11 93.77l.4.147.203-.555c.204-.552.514-.917.932-1.092.316-.109.904.007 1.836.348l9.513 3.5c.842.31 1.35.572 1.516.808.3.415.335.932.108 1.551l-.204.555.4.148 2.315-6.297-.398-.148-.205.553c-.204.556-.513.919-.922 1.072-.319.109-.912.016-1.844-.326l-4.301-1.582c.284-.424.513-.846.733-1.242.192-.383.351-.754.482-1.108.53-1.44.571-2.71.108-3.785-.466-1.053-1.295-1.812-2.491-2.252a4.043 4.043 0 00-1.308-.256zm211.753 1.061l-.401.133.178.541c.204.607.217 1.098.01 1.443-.157.274-.713.557-1.654.873l-9.656 3.223c-.718.24-1.226.357-1.481.345a.853.853 0 01-.695-.293 2.314 2.314 0 01-.576-.904l-.178-.535-.406.133 3.824 11.451 4.146.039-.15-.451c-1.076-.163-1.905-.409-2.502-.709-.479-.24-.824-.523-1.064-.865-.236-.344-.507-.928-.785-1.758l-.836-2.508c-.14-.425-.188-.71-.143-.875a.553.553 0 01.234-.424c.111-.115.506-.271 1.157-.488l4.908-1.637 1.092 3.27c.208.629.291 1.102.24 1.465a1.342 1.342 0 01-.395.83c-.166.18-.607.428-1.287.779l.137.402 5.176-1.726-.133-.401c-.868.236-1.52.229-1.984-.04-.344-.21-.662-.723-.946-1.575l-1.093-3.273 5.873-1.959 1.359 4.078c.24.718.366 1.25.35 1.578-.028.434-.162.776-.395 1.053-.246.307-.73.64-1.463 1.062l.143.424 3.22-1.248zM22.682 86.378a4.256 4.256 0 011.922.253c.932.341 1.586.887 1.96 1.653.38.744.433 1.493.155 2.246-.083.22-.194.457-.322.738-.16.293-.349.604-.553.955l-6.098-2.244c.08-.626.186-1.115.323-1.492.22-.6.548-1.08.994-1.473a2.831 2.831 0 011.62-.635zm-6.76 11.716l-2.56 11.797.419.09.118-.555c.138-.623.373-1.053.73-1.244.274-.157.898-.119 1.865.092l9.953 2.156c.737.16 1.236.317 1.446.46.24.125.389.326.45.607.092.358.108.723.034 1.068l-.12.555.415.09 2.56-11.799-3.55-2.148-.098.464c.843.689 1.428 1.323 1.789 1.885.29.45.441.869.473 1.287.03.418-.038 1.056-.223 1.912l-.56 2.584c-.095.44-.2.705-.325.823a.546.546 0 01-.414.25c-.153.042-.574-.025-1.244-.172l-5.06-1.098.734-3.371c.137-.648.311-1.094.541-1.381.204-.268.456-.43.762-.51.233-.07.74-.058 1.502-.013l.09-.416-5.331-1.158-.09.414c.864.24 1.424.58 1.682 1.045.191.354.204.963.013 1.84l-.732 3.371-6.051-1.311.914-4.203c.16-.74.321-1.262.5-1.537.249-.357.54-.584.879-.705.37-.137.957-.178 1.803-.162l.094-.44zm209.934 5.102l-.418.07.806 4.869.42-.07c-.077-.753-.04-1.26.113-1.502.146-.262.31-.41.57-.455.277-.044.743.024 1.39.18l2.595.621.99 5.994-2.04 1.27c-.673.422-1.179.674-1.507.728-.256.042-.487-.038-.707-.217-.198-.185-.382-.583-.507-1.186l-.418.07 1.005 6.081.418-.066c-.058-.638.026-1.156.272-1.555.24-.424.854-.906 1.805-1.518l11.984-7.49-.068-.395-13.623-3.33c-1.196-.281-1.99-.604-2.428-.916-.217-.154-.425-.55-.651-1.183zm6.38 3.951l6.688 1.645-5.82 3.623zm-211.711 6.986c-1.628-.093-3.065.204-4.357.864-1.267.686-2.222 1.603-2.81 2.8-.61 1.17-.97 2.948-1.1 5.262l-.36 6.367.424.024.032-.59c.035-.59.224-1.026.572-1.29.271-.199.89-.283 1.857-.228l10.118.573c.875.048 1.433.176 1.685.355.408.284.593.77.555 1.43l-.03.586.424.027.395-6.984c.172-3.019-.527-5.328-2.072-6.907-1.385-1.405-3.164-2.168-5.334-2.29zm-.056 2.645c2.145.121 3.81.808 4.994 2.06 1.184 1.225 1.736 2.747 1.637 4.518-.038.657-.2 1.478-.469 2.432l-13.279-.75c-.162-.887-.235-1.696-.196-2.379.105-1.841.804-3.314 2.118-4.4 1.318-1.107 3.047-1.602 5.195-1.48zm219.503 4.457c-.664.013-1.251.164-1.79.48-.515.293-1.003.724-1.443 1.299-.44.574-1.014 1.554-1.748 2.914-.734 1.356-1.194 2.166-1.426 2.48-.323.452-.698.79-1.097 1.007-.373.22-.772.323-1.151.326-.709.013-1.303-.262-1.832-.795-.505-.558-.775-1.313-.791-2.283a4.94 4.94 0 01.504-2.297c.367-.715.832-1.218 1.369-1.582.561-.338 1.384-.635 2.514-.842l-.006-.428-5.36.09.005.424c.355.041.617.13.738.246.118.096.169.258.172.447.003.191-.108.662-.356 1.422-.224.76-.358 1.261-.4 1.498a7.164 7.164 0 00-.074 1.274c.023 1.465.465 2.641 1.33 3.547.89.91 1.916 1.34 3.097 1.32a3.95 3.95 0 001.787-.453 4.69 4.69 0 001.469-1.276c.418-.527.99-1.555 1.744-3.03.941-1.812 1.702-2.956 2.264-3.438.396-.338.817-.512 1.29-.518.637-.01 1.185.24 1.69.754.504.51.75 1.19.762 1.971a4.414 4.414 0 01-.506 2.088 3.767 3.767 0 01-1.443 1.535c-.606.39-1.43.64-2.467.795l.006.427 5.41-.088-.006-.425c-.354-.063-.594-.179-.715-.297a.675.675 0 01-.195-.492c-.003-.166.087-.476.268-.903.387-.951.583-1.828.57-2.677-.022-1.324-.44-2.43-1.283-3.266-.817-.862-1.792-1.27-2.9-1.254zm3.498 14.072l-.08.586c-.08.584-.277.988-.618 1.205-.339.213-.967.274-1.925.143l-6.063-.828c-1.874-.252-3.152-.31-3.867-.143-1.053.214-1.912.743-2.617 1.528-.702.789-1.182 2.033-1.412 3.718-.214 1.57-.073 2.828.412 3.823.51.977 1.153 1.682 1.98 2.107.8.418 1.994.746 3.538.957l6.3.857c.864.118 1.394.26 1.604.454.472.4.664.904.584 1.51l-.08.587.422.057.74-5.453-.42-.057-.08.584c-.08.584-.303 1.008-.67 1.244-.287.175-.91.21-1.87.08l-6.275-.853c-1.663-.226-2.814-.526-3.45-.922-.666-.377-1.152-1.014-1.487-1.873-.338-.855-.424-1.797-.287-2.805.109-.795.34-1.455.695-1.953.354-.501.764-.874 1.246-1.094.488-.246 1.097-.355 1.908-.361.788-.013 1.474.032 2.084.115l6.766.92c.865.118 1.413.285 1.668.512.36.335.512.808.422 1.465l-.08.584.42.058.914-6.695zm-219.307 2.5l.074.465c1.034.338 1.813.718 2.352 1.11.434.316.727.653.906 1.03.179.379.352.998.49 1.86l.414 2.613c.07.443.067.73-.002.887a.546.546 0 01-.301.379c-.128.093-.545.186-1.221.29l-5.11.814-.54-3.407c-.105-.654-.107-1.13.004-1.484.093-.325.268-.569.527-.754.191-.15.666-.322 1.393-.555l-.067-.42-5.39.854.068.422c.894-.092 1.532.02 1.947.361.303.262.536.822.676 1.709l.543 3.406-6.115.973-.674-4.248c-.118-.747-.155-1.288-.088-1.61.102-.425.29-.742.564-.978.293-.262.827-.514 1.618-.807l-.07-.443-3.383.705 1.896 11.922.418-.063-.09-.562c-.1-.629-.032-1.12.23-1.424.2-.249.792-.436 1.772-.592l10.055-1.597c.747-.118 1.27-.152 1.517-.098a.84.84 0 01.637.402c.217.3.365.634.422.985l.088.56.418-.068-1.891-11.922zm201.75 12.639l-1.983 6.408.406.127.182-.588c.176-.565.46-.922.859-1.094.313-.128.909-.063 1.857.227l4.356 1.35c-.035.112-.093.217-.125.332l-.092.293c-.07.224-.16.518-.256.91l-8.568 2.914-1.235 3.994.405.125c.342-.785.748-1.376 1.224-1.797.494-.393 1.335-.8 2.545-1.193l5.244-1.764c-.112 1.324.07 2.417.565 3.215.488.817 1.21 1.363 2.113 1.643a3.593 3.593 0 002.48-.098c.768-.332 1.4-.852 1.878-1.522.457-.674.932-1.812 1.427-3.414l1.684-5.441-.408-.125-.172.566c-.175.561-.466.944-.865 1.116-.312.125-.912.064-1.86-.23l-9.683-2.993c-.858-.265-1.377-.502-1.553-.731-.322-.396-.387-.91-.193-1.542l.177-.565zm-195.637.971l-.401.131.17.517c.115.357.136.725.065 1.12-.06.269-.173.456-.323.603-.195.163-.697.377-1.441.62l-9.633 3.147c-.718.236-1.226.35-1.482.334a.846.846 0 01-.692-.295 2.387 2.387 0 01-.578-.93l-.168-.517-.404.131 2.082 6.38.406-.132-.176-.539a2.082 2.082 0 01-.056-1.078.941.941 0 01.32-.627c.195-.163.674-.366 1.437-.615l4.292-1.401 2.248 6.893-4.289 1.402c-.718.236-1.227.35-1.479.334a.98.98 0 01-.693-.297 2.334 2.334 0 01-.571-.906l-.177-.539-.403.131 2.084 6.38.403-.132-.174-.539a2.232 2.232 0 01-.061-1.102.965.965 0 01.321-.603c.198-.162.678-.365 1.441-.614l9.633-3.148c.9-.294 1.492-.39 1.773-.28.45.15.775.543.973 1.149l.174.539.406-.135-2.084-6.375-.406.13.18.54c.11.335.128.702.052 1.076a1.11 1.11 0 01-.318.625c-.194.162-.698.376-1.438.618l-4.535 1.482-2.252-6.893 4.535-1.482c.9-.294 1.488-.39 1.772-.28.453.172.774.543.971 1.149l.179.539.401-.133zm202.017 5.675l6.23 1.926c-.09.766-.196 1.35-.33 1.78-.294.948-.824 1.624-1.593 2.03-.76.382-1.595.442-2.543.149-.948-.29-1.628-.897-2.014-1.81-.415-.893-.379-2.046.061-3.469.02-.067.047-.156.076-.246.035-.115.071-.226.113-.36zm-12.637 11.457l-2.93 6.038.383.185.227-.465c.28-.575.634-.93 1.055-1.04.307-.089.887.062 1.758.486l3.595 1.742 3.653 5.949c.454.744.775 1.322.929 1.762.162.422.243.856.25 1.277-.016.412-.068.73-.148.9l-.133.278.379.185 2.383-4.912-.38-.185c-.176.361-.353.617-.532.767-.178.15-.376.24-.567.252a.985.985 0 01-.595-.08c-.315-.153-.702-.603-1.155-1.346l-2.996-4.867 5.95-.738c.865-.105 1.415-.102 1.67.023.297.143.46.404.472.752.016.348-.044.69-.197 1.006l-.153.32.379.186 2.92-6.014-.381-.189c-.125.255-.27.446-.398.545-.482.396-.859.632-1.11.722-.253.086-.824.18-1.753.307l-7.813.961-3.297-1.6c-.785-.383-1.255-.714-1.418-.976-.236-.43-.201-.938.086-1.535l.25-.512zm-182.348 2.077l-.375.195.246.484c.28.545.337 1.022.174 1.424-.115.297-.596.65-1.457 1.09l-10.642 5.455-1.002-1.953c-.3-.59-.453-1.095-.446-1.551.016-.43.16-.878.45-1.293.189-.255.534-.565 1.093-.928l-.21-.402-3.202 1.828 5.842 11.395 3.355-1.535-.205-.397c-.651.28-1.23.391-1.738.334-.488-.07-.902-.256-1.211-.55-.246-.22-.513-.637-.848-1.288l-.861-1.683 10.635-5.452c.779-.4 1.329-.574 1.635-.545.485.07.87.401 1.17.991l.259.504.38-.194zm73.138 55.858l-4.093 1.123.099.377c.552-.138.97-.183 1.248-.132a.8.8 0 01.481.255c.118.14.177.344.18.584.01.338-.074 1.066-.278 2.18l-1.519 8.31c-.169.928-.32 1.477-.422 1.649-.127.169-.293.284-.522.36-.252.074-.725.037-1.449-.071l-.078.418 5.803 1.061.076-.418c-.692-.15-1.148-.284-1.358-.44a.842.842 0 01-.353-.568c-.026-.246.026-.789.182-1.647l2.371-12.976zm30.603.74a4.384 4.384 0 00-.94.016c-1.497.185-2.635.969-3.414 2.373-.638 1.174-.89 2.418-.721 3.774.172 1.382.708 2.456 1.586 3.203.877.747 1.867 1.054 2.942.92.96-.118 1.992-.625 3.093-1.547a10.345 10.345 0 01-1.21 3.883c-.657 1.223-1.38 2.097-2.168 2.646-.788.549-1.696.9-2.676 1.043l.054.422.655-.08a7.063 7.063 0 003.855-1.713c1.375-1.168 2.415-2.56 3.076-4.14a9.788 9.788 0 00.668-4.979c-.24-1.921-1.004-3.469-2.265-4.643-.782-.706-1.62-1.095-2.534-1.179zm-24.722.48l-1.775 3.579.32.166c.46-.722 1.016-1.22 1.68-1.523.392-.182 1.012-.23 1.883-.16l4.28.338-5.763 13.675 1.293.102 6.395-15.069.035-.447zm13.735.261c-1.299.029-2.352.43-3.115 1.176-.762.75-1.143 1.631-1.12 2.646.012.66.216 1.293.583 1.9.367.606 1.187 1.39 2.457 2.376-1.136.85-1.92 1.626-2.354 2.318-.456.67-.68 1.36-.664 2.068.02.874.367 1.67 1.047 2.41.846.9 2.034 1.345 3.52 1.313 1.347-.032 2.444-.456 3.277-1.254.808-.795 1.212-1.724 1.187-2.834-.02-.871-.318-1.691-.924-2.457-.463-.58-1.377-1.385-2.746-2.393 1.28-.856 2.14-1.583 2.55-2.205.387-.623.587-1.215.575-1.806-.02-.874-.415-1.644-1.21-2.311-.79-.667-1.815-.972-3.063-.947zm9.908.053c.587-.073 1.13.097 1.631.486.527.412.956 1.026 1.32 1.836.364.836.581 1.615.674 2.365.07.587.1 1.391.084 2.393a4.272 4.272 0 01-1.178.859c-.45.22-.858.365-1.21.41-.727.09-1.376-.162-1.95-.758-.792-.827-1.272-2.031-1.473-3.646-.147-1.194-.005-2.138.436-2.812.415-.67.986-1.05 1.666-1.133zm-9.873.584c.779-.019 1.423.205 1.88.642.459.463.707 1.094.727 1.895.012.613-.092 1.159-.34 1.638-.227.5-.802 1.174-1.706 2.02l-1.944-1.539a4.38 4.38 0 01-.9-1.113 2.548 2.548 0 01-.332-1.196c-.012-.613.212-1.162.697-1.621.485-.46 1.14-.71 1.918-.726zm-.674 7.896c1.678 1.264 2.812 2.3 3.37 3.115.317.418.47.91.482 1.453a2.195 2.195 0 01-.717 1.713c-.485.485-1.14.733-1.99.752a2.679 2.679 0 01-2.073-.85c-.556-.578-.855-1.352-.878-2.34a4.676 4.676 0 01.427-2.067c.293-.641.753-1.243 1.379-1.776z" />
      <path fill="#fff"
         d="M175.773 80.275s-2.477 4.639-6.625 3.65c0 0 5.637 2.477 8.608-3.22zm-47.734 34.518l-.838 3.3-3.4.222 2.88 1.82-.84 3.3 2.62-2.177 2.88 1.818-1.259-3.166 2.621-2.177-3.404.222zm-49.723 1.287s.15 1.962 2.136 3.047c0 0-.898-1.506-.32-2.228h13.902s.34 1.89-1.9 4.236c0 0 3.329-2.106 3.967-4.994zm80.372.66s.731 2.17 2.793 3.565c0 0-.378-1.66.22-2.588h13.889s-.21 1.404-2.537 4.426c0 0 3.459-1.606 4.123-5.324zm-39.65 4.592l-.842 3.303-3.4.223 2.882 1.816-.842 3.303 2.62-2.176 2.882 1.818-1.26-3.164 2.62-2.179-3.4.222zm18.384.297l-.84 3.3-3.4.22 2.879 1.818-.838 3.303 2.619-2.18 2.879 1.82-1.258-3.166 2.62-2.172-3.401.219zm-27.851 6.772l-.842 3.304-3.4.223 2.879 1.818-.84 3.301 2.62-2.176 2.88 1.817-1.26-3.166 2.623-2.176-3.402.221zm37.727.025l-.844 3.303-3.398.222 2.88 1.821-.84 3.3 2.62-2.177 2.881 1.82-1.26-3.166 2.619-2.176-3.402.219zm-47.195 7.045l-.844 3.303-3.398.224 2.881 1.815-.842 3.304 2.621-2.179 2.881 1.818-1.26-3.162 2.619-2.176-3.402.217zm56.668 1.273l-.836 3.303-3.401.223 2.88 1.82-.841 3.3 2.619-2.177 2.883 1.82-1.263-3.166 2.621-2.177-3.401.22zm-66.628 5.832l-.843 3.303-3.4.22 2.882 1.815-.842 3.303 2.62-2.176 2.88 1.82-1.258-3.167 2.618-2.176-3.401.22zm76.506.973l-.84 3.301-3.402.224 2.882 1.815-.843 3.304 2.621-2.177 2.881 1.822-1.26-3.17 2.619-2.176-3.402.22zm-86.963 6.16l-.842 3.301-3.4.22 2.883 1.821-.844 3.301 2.62-2.18 2.882 1.822-1.26-3.166 2.62-2.177-3.4.222zm96.837.645l-.84 3.3-3.398.219 2.877 1.82-.838 3.303 2.619-2.177 2.879 1.818-1.256-3.164 2.616-2.178-3.4.221zM69.32 158.082l-.838 3.301-3.404.22 2.883 1.821-.84 3.301 2.621-2.176 2.881 1.818-1.26-3.166 2.617-2.177-3.4.222zm117.701 1.016l-.842 3.303-3.397.224 2.88 1.82-.841 3.299 2.619-2.18 2.883 1.821-1.263-3.166 2.621-2.176-3.401.221zm-83.135 15.883c-2.42-.028-1.914 2.562-1.914 2.562.37-1.918 2.29-2.537 2.29-2.537a3.868 3.868 0 00-.376-.025zm47.248.207c-.744.125-1.113.87-1.113.87.744.06 1.113-.87 1.113-.87z" />
   </g>
   <path fill="none" stroke="#fff" stroke-width="1.3849209"
      d="M125.748 83.548l-.246 9.536c-.124 1.982 2.103 2.476 2.103 2.476m4.21-18.327l2.725-2.476 2.974.494m-51.269 9.411c3.84-.494 5.323-3.963 5.323-3.963l28.482-6.562.993 1.114" />
   <path fill="none" stroke="#fff" stroke-width=".82955363"
      d="M77.583 80.457l.868 2.476-.124-2.725zm81.173 85.754c-2.352 1.609-3.53 4.953-3.778 9.102-.249 4.148.007 7.454.807 10.4.99 3.654 3.59 5.266 3.59 5.266m8.298-20.494c1.174 2.476-.434 6.19-.434 6.19m.31 3.9c1.483 2.91 0 7.06 0 7.06m-57.708-10.959h36.84m-60.244 5.139v8.297m3.095-2.85h1.673v-.989m7.987.99h1.36v-4.459m-17.83-6.19h17.025" />
</svg>