<svg xmlns="http://www.w3.org/2000/svg" viewBox="0 0 256 256">
   <path fill="#005a9c" stroke="#005a9c" stroke-width="1.0559736"
      d="M122.946 244.435c67.085 0 121.47-54.384 121.47-121.47 0-67.082-54.385-121.468-121.47-121.468-67.085 0-121.469 54.386-121.469 121.469 0 67.085 54.384 121.469 121.47 121.469z" />
   <path fill="#e7d468" stroke="#e7d468" stroke-width="1.5839603999999998"
      d="M59.361 146.713l4.195-51.841c-.378-20.318-7.127-22.246-7.127-22.246l26.405-15.91c25.069 14.45 39.92-4.493 39.92-4.493 22.204 21.26 41.007 4.9 41.007 4.9l27.518 15.71c-8.839 9.566-7.437 16.574-7.437 16.574l2.27 56.626-62.615-46.074z" />
   <path fill="#e7d468" stroke="#e7d468" stroke-width="1.0546403"
      d="M123.386 207.358s6.923-9.912 28.822-15.122c0 0 15.105-.511 28.421-21.246l-57.532-40.73-56.528 40.113c14.132 20.84 29.3 21.272 29.3 21.272 23.226 7.951 27.517 15.713 27.517 15.713z" />
   <path fill="#3698d4" stroke="#3698d4" stroke-width="1.0559736"
      d="M100.88 175.334c2.281 0 4.13-1.923 4.13-4.298 0-2.372-1.849-4.298-4.13-4.298-2.28 0-4.13 1.926-4.13 4.298 0 2.376 1.85 4.298 4.13 4.298z" />
   <path fill="#3698d4"
      d="M122.333 61.48l-1.91 13.134-4.52-4.022-28.368 5.97s-5.294 7.663-10.394-.284l-3.39.717s.388 5.719 6.772 9.025l.182.004a2.27 2.27 0 00-.652 1.6c0 .532.18 1.022.482 1.407l-12.05 21.32s11.336 19.763 26.91 1.021L84.02 88.996c.286-.38.455-.856.455-1.373a2.27 2.27 0 00-.582-1.524l.408.01s4.983-.752 6.285-5.627l28.877-.112.039-.008-.422 9.95c1.013 3.506 3.844 3.152 3.844 3.152 3.422.355 3.776-3.178 3.777-3.184l-1.18-9.799h28.798c1.266 4.885 6.315 6.02 6.315 6.02l.539-.008a2.27 2.27 0 00-.655 1.601c0 .6.23 1.145.606 1.55l-11.543 22.27c15.421 18.864 26.914-.808 26.914-.808L164.488 89.46c.284-.38.453-.852.453-1.365 0-.65-.27-1.237-.703-1.649l.173-.001c6.412-3.258 6.844-8.97 6.844-8.97l-3.383-.748c-5.164 7.908-10.398.203-10.398.203l-28.314-6.196-4.953 3.87-1.754-12.77zM83.33 89.6l10.636 20.9-11.406.077.051-20.727c.257-.04.499-.127.719-.25zm-2.12.005c.087.048.179.09.272.125l.016 20.734h-12.04zm82.527.496l11.654 20.894h-11.908l-.073-20.754c.114-.037.222-.084.326-.138zm-1.659.149c.106.033.215.059.326.076l-.072 20.727h-11.314zm-6.576 67.483c-6.046.016-7.638 4.368-7.917 10.56l-.051-.056s-2.181.355-2.653-1.418c0 0-.474 1.535-2.478 1.475l-62.948.06c-3.86 3.127.037 5.608.037 5.608h3.07v8.85h7.08v-7.08H86.81l.059 1.651h-1.594v-3.304h9.982l-.02 3.304h-1.464l-.058-1.662-2.834-.011-.034 7.081 7.117.082v-8.736l44.969-.058c1.536.058 2.123 1.832 2.123 1.832.413-2.069 2.539-1.832 2.539-1.832.471 5.91 2.482 10.469 7.966 10.505 6.61.04 7.668-6.506 7.668-13.927 0-7.422-1.293-12.945-7.726-12.924zm.03 2.188c2.271-.046 4.193 2.365 4.343 5.511.104 2.242-.715 4.274-2.008 5.387l-.224.14c1.28.907 2.198 2.676 2.32 4.793.18 3.249-1.588 6.084-3.951 6.336-2.363.25-4.426-2.178-4.611-5.424-.125-2.241.68-4.285 1.963-5.42l.218-.212c-1.271-.928-2.176-2.714-2.277-4.834-.152-3.249 1.642-6.056 4.006-6.265a3.16 3.16 0 01.22-.012z" />
   <path fill="none" stroke="#3698d4" stroke-width="1.0559736"
      d="M82.614 88.185l-.057 22.382 11.406-.078zm-1.135.93l-12.023 21.34h12.039zm81.926.389l.075 21.479 11.908.001zm-1.002.117l-11.388 21.423h11.314z" />
   <path fill="#e7d468"
      d="M82.294 85.959c-.83 0-1.502.726-1.502 1.627 0 .9.672 1.626 1.502 1.626s1.502-.726 1.502-1.626c0-.9-.671-1.627-1.502-1.627zm80.465.47c-.83 0-1.502.73-1.502 1.627 0 .9.671 1.627 1.502 1.627.83 0 1.502-.726 1.502-1.627 0-.897-.672-1.627-1.502-1.627z" />
   <path fill="none" stroke="#fff" stroke-width="1.5839603999999998"
      d="M123.093 241.184c65.024 0 117.734-52.713 117.734-117.734 0-65.02-52.71-117.735-117.734-117.735C58.073 5.715 5.36 58.43 5.36 123.45c0 65.02 52.713 117.734 117.734 117.734zm0-28.387c49.344 0 89.347-40.003 89.347-89.347 0-49.344-40.003-89.347-89.347-89.347-49.344 0-89.347 40.003-89.347 89.347 0 49.344 40.003 89.347 89.347 89.347z" />
   <g>
      <path fill="#3698d4" stroke="#3698d4" stroke-width=".7906468999999999"
         d="M66.188 170.33c-4.164-5.813-7.528-14.502-7.528-22.317l64.834-46.999 63.26 46.6c0 7.817-1.512 17.563-5.679 23.375l-57.969-41.786z" />
      <path fill="#fff" stroke="#fff" stroke-width=".5293201"
         d="M115.733 12.587l-12.117 1.457.264 3.506.424-.05c-.037-.676.058-1.234.277-1.669.222-.41.525-.72.887-.9.277-.146.742-.245 1.435-.33l1.79-.217 1.359 11.314c.1.827.077 1.373-.051 1.64-.222.411-.649.644-1.275.717l-.536.069.05.4 6.304-.76-.047-.402-.516.065c-.58.07-1.025-.037-1.332-.317-.228-.2-.383-.747-.496-1.666l-1.36-11.312 2.079-.25c.627-.076 1.129-.046 1.533.11.383.157.733.435 1.01.833.164.253.328.664.47 1.281l.424-.052zm15.907.055c-1.374.121-2.635.618-3.764 1.482-1.728 1.36-2.71 3.216-2.92 5.57-.21 2.312.315 4.258 1.574 5.84 1.26 1.585 2.9 2.455 4.965 2.64 2.017.183 3.79-.404 5.36-1.779 1.544-1.353 2.433-3.172 2.634-5.414.198-2.199-.333-4.1-1.613-5.685s-2.898-2.475-4.826-2.648a7.889 7.889 0 00-1.41-.006zm1.138.771c1.411.128 2.468.721 3.186 1.78.897 1.347 1.218 3.296.99 5.83-.213 2.354-.818 4.042-1.834 5.036-.995 1.016-2.186 1.451-3.576 1.327-1.323-.119-2.311-.706-3.03-1.786-.912-1.396-1.261-3.303-1.042-5.724.213-2.379.869-4.128 1.988-5.271.897-.913 1.995-1.31 3.318-1.192zm10.832.889l-.098.394.528.13c.35.088.656.254.917.503.186.186.279.372.325.567.033.24-.045.753-.225 1.474l-2.303 9.385c-.216.873-.437 1.398-.666 1.574-.35.286-.826.353-1.42.207l-.523-.127-.097.393 6.21 1.527.098-.396-.525-.127a2.005 2.005 0 01-.899-.5c-.21-.192-.3-.378-.345-.573-.034-.24.046-.753.222-1.474l1.125-4.572 2.621.646c.484.119.837.276 1.047.465.231.195.377.441.443.736.067.295.056.73-.084 1.299l.393.098 1.207-4.92-.393-.096c-.285.788-.61 1.262-.96 1.457-.347.192-.819.215-1.43.063l-2.625-.645 1.396-5.685 3.194.785c.742.182 1.296.39 1.609.627.316.219.561.531.728.896.183.393.278.95.287 1.67l.372.096.628-3.235zm-43.446.293l-5.046 1.435.113.39.496-.14c.587-.167 1.04-.133 1.387.098.255.158.519.669.771 1.557l2.365 8.295-11.867-8.28-3.853 1.098.11.389c.41-.119.72-.183.954-.18.457.037.798.08 1.057.168.265.112.677.322 1.23.705l2.842 9.984c.231.8.292 1.344.207 1.627-.155.441-.54.739-1.166.918l-.498.14.11.39 5.046-1.436-.11-.389-.52.145c-.563.16-1.02.128-1.387-.094-.256-.161-.496-.678-.748-1.567l-2.518-8.835 12.738 8.874.389-.11-3.45-12.106c-.227-.8-.288-1.346-.206-1.629.155-.441.538-.739 1.146-.912l.522-.147zm63.705 5.6l-1.62 3.12.386.18c.326-.593.697-1.019 1.113-1.271.405-.235.827-.337 1.229-.297.313.021.764.177 1.396.472l1.633.758-4.797 10.336c-.35.754-.66 1.207-.906 1.365-.408.234-.891.208-1.463-.057l-.49-.228-.174.367 5.762 2.674.17-.367-.47-.22c-.531-.245-.852-.567-.962-.966-.091-.292.064-.841.453-1.678l4.797-10.333 1.9.88c.572.265.983.554 1.244.9.24.335.396.756.42 1.24.01.3-.07.736-.273 1.335l.387.182 1.337-3.254zm-82.919.47l-10.43 4.857.17.37.49-.229c.551-.256 1.016-.322 1.366-.164.277.119.607.61 1.006 1.469l4.101 8.796c.304.654.47 1.122.483 1.366a.797.797 0 01-.198.687 2.238 2.238 0 01-.793.645l-.49.228.17.37 10.43-4.862-.416-3.93-.409.188c-.036 1.037-.182 1.85-.398 2.449-.176.478-.407.833-.705 1.098-.301.264-.82.58-1.578.933l-2.285 1.065c-.39.18-.655.256-.813.228a.517.517 0 01-.427-.17c-.12-.094-.312-.454-.588-1.047l-2.08-4.466 2.976-1.391c.572-.265 1.01-.395 1.363-.383.323-.002.591.093.828.281.189.137.468.528.875 1.133l.366-.17-2.196-4.714-.369.17c.323.796.388 1.41.184 1.878-.161.347-.615.71-1.39 1.073l-2.981 1.386-2.492-5.347 3.714-1.73c.654-.305 1.14-.485 1.453-.506.414-.019.755.073 1.041.261.317.201.687.624 1.164 1.272l.387-.18zm97.107 6.281l-.228.338.45.3c.28.19.509.454.688.792a.922.922 0 01.112.642c-.052.238-.291.675-.717 1.31l-5.393 8.016c-.505.745-.894 1.162-1.168 1.25-.425.146-.9.046-1.406-.295l-.447-.3-.225.335 5.305 3.569.224-.334-.447-.301a2.002 2.002 0 01-.672-.78 1.082 1.082 0 01-.127-.656c.052-.237.304-.69.717-1.308l2.541-3.775 5.736 3.86-2.54 3.774c-.506.748-.895 1.165-1.169 1.25-.444.134-.899.046-1.404-.295l-.447-.3-.225.337 5.305 3.57.224-.337-.43-.29c-.297-.2-.529-.464-.708-.802a1.15 1.15 0 01-.11-.645c.052-.234.306-.69.72-1.308l5.392-8.014c.401-.596.718-.982.916-1.119a.822.822 0 01.697-.185c.35.045.676.16.974.361l.434.29.225-.339-5.305-3.568-.228.336.449.3c.28.19.508.454.67.78a.89.89 0 01.13.656c-.051.237-.29.673-.716 1.309l-2.405 3.566-5.732-3.86 2.399-3.568c.401-.599.715-.982.916-1.119a.938.938 0 01.697-.185c.347.045.677.159.957.347l.451.305.225-.338zm-110.755.121l-3.46 2.438 2.345 12.61-11.115-6.445-3.498 2.46.233.331c.499-.35.906-.554 1.234-.593.298-.046.55 0 .76.101.295.15.636.514 1.014 1.049l5.609 7.974c.477.682.713 1.18.728 1.471-.002.468-.267.876-.78 1.238l-.442.309.232.332 4.291-3.018-.234-.332-.442.31c-.477.339-.917.454-1.34.366-.295-.067-.69-.476-1.222-1.23l-5.74-8.162 11.943 6.963.297-.208-2.532-13.58 5.737 8.16c.48.682.718 1.174.73 1.466.018.456-.265.876-.78 1.238l-.443.314.235.33 5.23-3.68-.234-.331-.422.298c-.499.35-.94.47-1.342.366-.295-.067-.71-.464-1.24-1.221l-5.61-7.974c-.48-.682-.718-1.174-.73-1.47 0-.468.266-.872.8-1.25l.423-.298zM193.33 37.645l-.278.297.395.367c.447.414.684.818.666 1.201-.003.304-.337.795-.979 1.488l-6.607 7.112c-.49.526-.861.859-1.08.962a.81.81 0 01-.71.075 2.192 2.192 0 01-.897-.492l-.397-.37-.273.3 8.427 7.827 3.487-1.863-.332-.309c-.974.356-1.779.53-2.415.555-.51.018-.927-.064-1.283-.24-.359-.18-.85-.543-1.46-1.112l-1.85-1.714c-.313-.292-.48-.508-.516-.666a.516.516 0 010-.463c.043-.146.3-.455.744-.936l3.356-3.615 2.408 2.24c.462.43.75.784.871 1.116.125.298.134.584.049.873-.055.225-.311.633-.719 1.238l.295.277 3.541-3.812-.295-.276c-.617.597-1.166.889-1.674.873-.383-.015-.887-.301-1.513-.882l-2.41-2.239 4.015-4.322 3.002 2.79c.53.489.876.875 1.015 1.157.174.375.216.725.149 1.063-.067.368-.319.87-.738 1.557l.312.289 2.123-2.516zM48.919 40.78l-8.6 8.662 2.383 2.585.301-.3c-.447-.508-.72-1.001-.818-1.479-.08-.462-.033-.892.14-1.26.128-.285.429-.652.918-1.148l1.268-1.277 8.088 8.025c.593.587.912 1.032.976 1.318.082.462-.107.907-.55 1.354l-.384.386.29.282 4.474-4.504-.289-.285-.365.367c-.41.413-.825.608-1.238.578-.305-.015-.765-.35-1.422-.998l-8.086-8.027 1.475-1.487c.444-.447.859-.735 1.27-.863a2.285 2.285 0 011.306.028c.286.094.67.315 1.166.71l.3-.304zm160.076 12.747l-2.941 1.926.248.346c.575-.356 1.105-.544 1.591-.563.469-.006.885.11 1.22.344.26.17.574.527.982 1.096l1.056 1.459-9.244 6.662c-.675.49-1.169.73-1.46.748-.47.006-.879-.255-1.247-.766l-.316-.44-.328.239 3.713 5.148.33-.236-.305-.42c-.34-.475-.466-.912-.365-1.317.064-.295.465-.7 1.217-1.238l9.243-6.662 1.223 1.698c.368.51.587.967.645 1.396.045.41-.025.851-.24 1.283-.14.268-.424.609-.895 1.031l.252.348 2.756-2.181zM38.253 54.53a4.262 4.262 0 00-2.178.756c-.627.456-1.42 1.324-2.385 2.602l-3.267 4.334.326.244.338-.451c.337-.447.723-.697 1.136-.721.32-.012.838.238 1.592.807l7.717 5.812c.681.517 1.073.895 1.158 1.156.161.46.052.942-.328 1.443l-.338.452.322.244 3.848-5.108-.323-.244-.351.469c-.338.45-.71.679-1.123.703-.32.015-.837-.234-1.594-.803l-3.47-2.617c.07-.09.155-.166.222-.258l.176-.234c.137-.18.313-.411.523-.73l8.625.156 2.399-3.186-.323-.242c-.56.593-1.114.99-1.68 1.215-.565.192-1.453.288-2.663.248l-5.276-.113c.53-1.15.722-2.19.534-3.067-.174-.89-.646-1.611-1.364-2.156a3.42 3.42 0 00-2.253-.71zm-.89 2.108c.593.045 1.166.272 1.731.699.758.569 1.17 1.332 1.22 2.275.086.937-.318 1.956-1.173 3.09-.04.055-.095.124-.15.197-.067.089-.133.181-.215.287l-4.965-3.738c.326-.657.613-1.146.871-1.49.57-.754 1.263-1.189 2.084-1.305.202-.024.4-.03.598-.015zm180.596 9.636l-.359.186.256.502c.258.499.312.95.154 1.334-.128.295-.576.652-1.416 1.084l-8.6 4.406c-.76.39-1.27.578-1.544.539-.484-.055-.87-.361-1.156-.924l-.258-.5-.36.184 2.916 5.689.36-.182-.264-.523c-.258-.499-.301-.933-.146-1.316.127-.292.577-.653 1.42-1.084l3.867-1.983c.051.1.08.212.132.313.052.1.096.18.135.26.104.2.237.462.432.79l-3.9 7.696 1.816 3.546.361-.185c-.289-.764-.407-1.436-.361-2.041.073-.596.377-1.434.94-2.508l2.4-4.695c.806.976 1.657 1.603 2.527 1.816.876.234 1.733.124 2.533-.287.76-.392 1.3-.97 1.625-1.719.304-.739.386-1.513.268-2.289-.137-.763-.573-1.855-1.303-3.279zm1.022 4.262c.447.578.766 1.05.96 1.43.433.842.522 1.654.266 2.445-.264.766-.792 1.365-1.634 1.797-.84.432-1.707.472-2.576.107-.88-.334-1.623-1.142-2.268-2.404-.03-.06-.074-.139-.113-.22-.052-.101-.104-.202-.168-.321zm-194.155.988l-.18.34 8.463 10.347c.748.9 1.168 1.604 1.32 2.09.076.244.008.666-.184 1.278l.36.185 2.181-4.166-.359-.19c-.374.618-.693.983-.945 1.08-.265.116-.479.133-.698.02-.24-.124-.557-.445-.959-.935l-1.617-1.965 2.686-5.127 2.281.203c.754.064 1.287.165 1.566.311.22.116.347.31.41.572.046.253-.041.662-.29 1.192l.357.189 2.726-5.207-.359-.19c-.322.52-.68.864-1.098 1.028-.425.182-1.17.201-2.248.119zm2.685 2.297l6.506.584-2.36 4.508zm-3.703 7.027a3.544 3.544 0 00-1.203.184c-.8.283-1.449.738-1.99 1.355-.517.627-1.009 1.573-1.465 2.82l-1.892 5.135.38.14.194-.529c.194-.526.49-.873.888-1.04.302-.104.862.006 1.75.331l9.067 3.336c.803.295 1.287.545 1.445.77.286.395.32.888.103 1.478l-.195.53.38.14 2.208-6.002-.38-.14-.194.527c-.195.53-.49.876-.88 1.022-.303.103-.869.014-1.757-.311l-4.1-1.508c.271-.404.49-.806.7-1.183.182-.365.334-.72.459-1.057.505-1.372.544-2.582.103-3.607-.444-1.004-1.234-1.727-2.375-2.147a3.853 3.853 0 00-1.246-.244zM225.63 81.86l-.383.127.17.515c.195.578.207 1.047.01 1.375-.15.262-.68.531-1.577.832l-9.203 3.072c-.684.229-1.169.34-1.412.329a.813.813 0 01-.662-.28 2.206 2.206 0 01-.549-.861l-.17-.51-.386.127 3.644 10.914 3.951.037-.142-.43c-1.025-.155-1.816-.39-2.385-.676-.456-.228-.786-.498-1.014-.824-.225-.328-.483-.885-.748-1.675l-.797-2.391c-.134-.405-.179-.676-.136-.834a.527.527 0 01.222-.404c.107-.11.483-.258 1.104-.465l4.677-1.56 1.041 3.117c.198.599.278 1.05.229 1.396a1.279 1.279 0 01-.377.791c-.158.17-.579.408-1.227.742l.131.383 4.934-1.644-.127-.383c-.828.225-1.45.218-1.89-.037-.33-.201-.633-.69-.903-1.502l-1.041-3.12 5.597-1.867 1.295 3.887c.228.684.35 1.19.334 1.504-.027.413-.155.74-.377 1.004-.234.292-.695.61-1.394 1.011l.136.405 3.069-1.19zM22.568 83.296c.62-.06 1.218.015 1.832.24.888.326 1.511.847 1.867 1.577.362.708.413 1.422.149 2.14-.08.21-.185.436-.307.703-.152.28-.333.576-.527.91l-5.813-2.138c.076-.596.178-1.063.309-1.422.21-.572.521-1.03.947-1.404.417-.35.95-.56 1.543-.606zm-6.443 11.166l-2.44 11.244.399.086.113-.53c.131-.593.355-1.003.696-1.185.261-.15.855-.113 1.777.088l9.486 2.054c.703.152 1.178.303 1.379.44.228.118.37.31.428.578.088.34.103.689.033 1.017l-.115.53.396.086 2.44-11.246-3.383-2.047-.094.441c.803.657 1.361 1.262 1.705 1.797.277.429.42.828.451 1.227.028.398-.036 1.007-.213 1.822l-.533 2.463c-.091.42-.192.672-.31.785a.52.52 0 01-.395.238c-.146.04-.547-.024-1.185-.164l-4.822-1.047.699-3.213c.13-.617.296-1.042.515-1.316.195-.255.435-.41.727-.486.222-.067.705-.055 1.431-.012l.086-.397-5.081-1.103-.086.394c.824.228 1.357.552 1.603.996.183.338.194.918.012 1.754l-.697 3.213-5.768-1.25.871-4.006c.153-.705.307-1.203.477-1.464.237-.341.515-.557.838-.672.353-.131.913-.17 1.719-.155l.09-.42zm200.088 4.863l-.398.067.767 4.64.4-.066c-.072-.718-.038-1.2.108-1.432.14-.25.297-.39.543-.433.265-.043.709.023 1.326.171l2.473.592.943 5.713-1.943 1.21c-.642.402-1.124.643-1.437.694-.244.04-.464-.036-.674-.207-.189-.176-.364-.556-.483-1.13l-.398.066.957 5.796.398-.062c-.054-.608.026-1.102.26-1.482.228-.405.814-.864 1.72-1.448l11.422-7.138-.064-.377-12.984-3.174c-1.14-.267-1.898-.575-2.314-.873-.207-.146-.406-.525-.622-1.127zm6.08 3.766l6.375 1.568-5.547 3.453zm-201.781 6.658c-1.552-.088-2.92.194-4.153.824-1.207.654-2.118 1.527-2.677 2.668-.581 1.116-.924 2.81-1.05 5.015l-.343 6.069.404.023.032-.562c.033-.563.213-.978.545-1.23.258-.19.847-.27 1.769-.218l9.644.547c.834.046 1.365.168 1.606.338.389.27.565.734.529 1.363l-.03.559.405.025.377-6.656c.164-2.877-.503-5.078-1.975-6.584-1.32-1.338-3.015-2.066-5.084-2.181zm-.053 2.521c2.044.116 3.631.77 4.76 1.963 1.128 1.168 1.654 2.618 1.56 4.307-.036.626-.192 1.408-.447 2.318l-12.656-.715c-.155-.846-.224-1.617-.188-2.268.1-1.755.767-3.159 2.02-4.193 1.256-1.055 2.904-1.527 4.95-1.412zm209.208 4.248c-.633.012-1.193.156-1.707.457-.49.28-.955.69-1.375 1.238-.42.548-.966 1.482-1.666 2.777-.7 1.293-1.137 2.066-1.36 2.364-.306.432-.664.754-1.044.96-.356.21-.736.308-1.098.311-.675.012-1.24-.25-1.746-.758-.48-.532-.738-1.25-.754-2.175a4.709 4.709 0 01.48-2.19c.35-.681.795-1.16 1.306-1.507.535-.323 1.32-.606 2.396-.803l-.005-.408-5.11.085.006.405c.337.04.587.125.703.234.112.091.16.246.164.426.003.182-.103.631-.34 1.355-.213.724-.341 1.203-.38 1.428-.062.383-.08.786-.071 1.215.021 1.396.443 2.517 1.268 3.38.848.867 1.825 1.277 2.95 1.258a3.764 3.764 0 001.704-.431 4.47 4.47 0 001.4-1.217c.399-.502.944-1.481 1.662-2.887.898-1.727 1.623-2.818 2.159-3.277.377-.322.778-.488 1.228-.494.608-.01 1.13.229 1.611.719.48.486.715 1.133.727 1.879a4.207 4.207 0 01-.483 1.99 3.59 3.59 0 01-1.374 1.463c-.578.37-1.364.608-2.352.757l.005.407 5.156-.084-.005-.405c-.338-.06-.566-.17-.682-.283a.643.643 0 01-.185-.468c-.003-.159.082-.454.256-.862.368-.906.555-1.741.543-2.55-.022-1.263-.42-2.317-1.223-3.114-.779-.821-1.708-1.21-2.764-1.195zm3.334 13.412l-.076.558c-.076.557-.265.942-.59 1.149-.322.203-.921.261-1.834.136l-5.78-.789c-1.785-.24-3.003-.295-3.685-.136-1.003.203-1.822.708-2.494 1.457-.669.75-1.126 1.936-1.345 3.542-.204 1.497-.07 2.696.392 3.645.487.93 1.1 1.603 1.887 2.008.763.398 1.9.711 3.373.912l6.004.816c.824.113 1.328.248 1.529.434.45.38.632.861.556 1.44l-.076.558.403.054.705-5.197-.4-.054-.077.556c-.076.557-.289.96-.638 1.186-.274.167-.868.2-1.784.076l-5.98-.813c-1.585-.216-2.682-.501-3.287-.878-.636-.36-1.099-.967-1.418-1.786-.322-.815-.404-1.712-.273-2.673.103-.758.324-1.387.662-1.862.337-.477.728-.833 1.187-1.043.466-.234 1.046-.337 1.819-.343.75-.012 1.405.03 1.986.109l6.449.877c.824.112 1.346.272 1.59.488.343.32.487.77.402 1.397l-.076.556.4.055.871-6.38zM23.98 132.312l.07.444c.985.322 1.728.684 2.242 1.058.414.301.693.622.863.98.17.363.336.953.467 1.774l.394 2.49c.067.423.065.697 0 .846a.52.52 0 01-.288.361c-.122.089-.52.177-1.164.278l-4.87.775-.515-3.248c-.1-.623-.102-1.076.004-1.414a1.28 1.28 0 01.502-.719c.183-.143.635-.307 1.328-.529l-.064-.4-5.137.814.065.403c.852-.089 1.46.018 1.855.343.29.25.511.784.645 1.63l.517 3.245-5.828.928-.642-4.049c-.113-.711-.148-1.228-.084-1.535.097-.404.275-.706.537-.932.28-.249.789-.49 1.543-.769l-.067-.422-3.224.672 1.806 11.363.399-.06-.086-.536c-.094-.599-.03-1.068.219-1.357.191-.237.755-.416 1.69-.565l9.583-1.521c.712-.113 1.21-.145 1.445-.094a.8.8 0 01.608.383c.206.286.347.605.402.94l.084.533.398-.065-1.802-11.363zm192.288 12.047l-1.89 6.107.386.121.174-.56c.167-.538.438-.879.818-1.043.298-.122.866-.06 1.77.217l4.152 1.287c-.033.106-.088.207-.119.316l-.088.28c-.067.212-.153.493-.244.867l-8.166 2.777-1.177 3.806.386.12c.326-.749.713-1.312 1.166-1.713.472-.374 1.273-.763 2.426-1.137l4.998-1.682c-.107 1.263.067 2.304.539 3.065.465.778 1.153 1.298 2.013 1.566a3.425 3.425 0 002.364-.094 4.25 4.25 0 001.79-1.45c.436-.643.889-1.728 1.36-3.255l1.605-5.185-.388-.12-.164.54c-.168.535-.444.9-.825 1.064-.298.119-.87.061-1.773-.218l-9.228-2.854c-.818-.252-1.313-.478-1.48-.697-.308-.377-.37-.867-.184-1.469l.168-.539zm-186.462.926l-.383.125.162.492c.11.34.13.691.063 1.068a1.111 1.111 0 01-.309.574c-.185.156-.664.36-1.373.59l-9.181 3c-.684.225-1.169.334-1.412.319a.807.807 0 01-.66-.282 2.275 2.275 0 01-.551-.886l-.16-.493-.385.125 1.984 6.08.387-.125-.168-.513a1.984 1.984 0 01-.053-1.028.897.897 0 01.305-.597c.186-.155.642-.349 1.37-.586l4.09-1.336 2.143 6.57-4.087 1.336c-.685.225-1.17.334-1.41.318a.935.935 0 01-.66-.283 2.225 2.225 0 01-.546-.863l-.167-.514-.385.125 1.986 6.08.385-.125-.166-.513a2.127 2.127 0 01-.059-1.051.92.92 0 01.307-.574c.188-.156.646-.35 1.373-.586l9.181-3c.858-.28 1.422-.371 1.69-.268.429.143.739.518.927 1.096l.166.514.387-.13-1.986-6.075-.387.125.172.513c.103.32.122.67.049 1.026-.052.276-.16.455-.303.595-.186.155-.665.359-1.371.59l-4.322 1.412-2.147-6.57 4.322-1.412c.858-.28 1.42-.37 1.69-.267.432.164.737.517.926 1.095l.17.514.382-.127zm192.542 5.408l5.937 1.836c-.085.73-.186 1.286-.314 1.697-.28.903-.785 1.547-1.518 1.934-.724.365-1.52.422-2.424.142-.903-.277-1.551-.855-1.92-1.725-.395-.851-.36-1.95.06-3.306.017-.064.044-.15.071-.234l.108-.344zm-12.045 10.92l-2.793 5.755.366.176.216-.443c.268-.548.605-.887 1.006-.99.292-.086.846.058 1.676.462l3.426 1.66 3.482 5.67c.432.709.739 1.26.885 1.68.155.401.232.815.238 1.217-.015.392-.065.696-.14.857l-.128.266.362.175 2.271-4.681-.363-.176c-.167.344-.336.588-.506.73a.96.96 0 01-.541.24.939.939 0 01-.566-.075c-.301-.146-.67-.575-1.102-1.284l-2.855-4.638 5.671-.703c.825-.1 1.349-.097 1.592.021.283.137.437.386.45.717a1.97 1.97 0 01-.188.959l-.147.305.362.177 2.783-5.732-.363-.18c-.12.244-.258.426-.38.52-.459.377-.818.602-1.058.688-.24.082-.785.17-1.67.292l-7.447.916-3.142-1.525c-.748-.365-1.197-.68-1.352-.93-.225-.41-.191-.894.082-1.462l.238-.489zm-173.795 1.98l-.358.186.235.46c.267.52.32.975.166 1.358-.11.283-.568.62-1.389 1.039l-10.142 5.199-.955-1.861c-.286-.563-.432-1.044-.426-1.479.015-.41.153-.837.43-1.232.179-.244.508-.538 1.04-.885l-.199-.383-3.052 1.742 5.568 10.861 3.197-1.462-.195-.38c-.62.268-1.173.374-1.656.319-.466-.067-.86-.244-1.155-.523-.234-.21-.489-.608-.808-1.229l-.82-1.603 10.136-5.197c.742-.38 1.266-.547 1.559-.52.462.067.829.383 1.115.945l.246.48.363-.185zm69.707 53.237l-3.9 1.07.094.36c.526-.13.924-.174 1.19-.125.176.03.346.108.458.242.113.134.169.329.172.557.01.322-.071 1.016-.266 2.078l-1.447 7.92c-.161.885-.305 1.407-.402 1.572a.977.977 0 01-.498.343c-.24.07-.69.036-1.381-.068l-.074.399 5.53 1.011.073-.398c-.66-.143-1.094-.271-1.295-.42a.803.803 0 01-.336-.541c-.024-.234.025-.752.174-1.57l2.26-12.367zm29.169.705a4.179 4.179 0 00-.897.016c-1.426.176-2.511.923-3.253 2.262a5.82 5.82 0 00-.688 3.597c.164 1.317.675 2.341 1.512 3.053.836.712 1.78 1.005 2.804.877.916-.113 1.898-.596 2.948-1.475a9.86 9.86 0 01-1.153 3.701c-.626 1.165-1.315 1.999-2.066 2.522a5.94 5.94 0 01-2.55.994l.05.402.625-.076a6.732 6.732 0 003.674-1.633c1.31-1.113 2.302-2.44 2.931-3.945a9.329 9.329 0 00.637-4.746c-.228-1.831-.957-3.306-2.158-4.426-.746-.673-1.545-1.043-2.416-1.123zm-23.564.46l-1.691 3.41.305.158c.438-.688.969-1.163 1.601-1.452.374-.173.965-.219 1.795-.152l4.08.322-5.494 13.033 1.233.098 6.095-14.362.033-.426zm13.092.247c-1.238.028-2.242.41-2.969 1.121-.727.715-1.09 1.555-1.068 2.522.012.63.207 1.232.556 1.81.35.578 1.132 1.326 2.342 2.266-1.083.809-1.83 1.549-2.244 2.209-.435.638-.648 1.295-.633 1.97.019.834.35 1.592.998 2.297.806.858 1.938 1.283 3.356 1.252 1.283-.03 2.329-.435 3.123-1.195.77-.757 1.155-1.643 1.13-2.701-.018-.83-.302-1.612-.88-2.342-.441-.553-1.313-1.32-2.617-2.281 1.22-.815 2.039-1.508 2.431-2.102.368-.593.56-1.158.547-1.72-.018-.834-.395-1.568-1.152-2.203-.755-.636-1.73-.927-2.92-.903zm9.443.051c.56-.07 1.077.092 1.555.463.501.392.91.977 1.257 1.75.347.797.555 1.539.643 2.254.067.56.095 1.326.08 2.281a4.072 4.072 0 01-1.123.818c-.429.21-.818.348-1.152.39-.694.086-1.312-.153-1.86-.722-.754-.787-1.212-1.935-1.404-3.474-.14-1.138-.004-2.038.416-2.68.396-.639.94-1 1.588-1.08zm-9.41.557c.742-.018 1.356.194 1.791.611.438.441.675 1.043.693 1.807.012.584-.087 1.104-.324 1.56-.216.478-.764 1.12-1.625 1.926l-1.853-1.467a4.175 4.175 0 01-.858-1.06 2.429 2.429 0 01-.316-1.141c-.012-.584.202-1.107.664-1.545.462-.438 1.086-.676 1.828-.691zm-.643 7.525c1.6 1.204 2.68 2.193 3.213 2.969.301.398.447.867.46 1.384a2.092 2.092 0 01-.684 1.633c-.463.463-1.088.699-1.897.717a2.553 2.553 0 01-1.976-.81c-.53-.551-.815-1.288-.836-2.231-.015-.7.126-1.354.406-1.969.28-.611.718-1.185 1.314-1.693z" />
      <path fill="#fff"
         d="M168.479 77.479s-2.36 4.421-6.315 3.478c0 0 5.374 2.361 8.205-3.068zm-45.495 32.899l-.799 3.144-3.24.213 2.744 1.735-.8 3.144 2.497-2.074 2.744 1.732-1.2-3.017 2.499-2.074-3.244.21zm-47.391 1.227s.143 1.87 2.035 2.904c0 0-.855-1.436-.305-2.123h13.25s.325 1.801-1.81 4.037c0 0 3.172-2.007 3.78-4.76zm76.602.628s.697 2.07 2.662 3.399c0 0-.36-1.582.21-2.467h13.237s-.2 1.338-2.418 4.219c0 0 3.297-1.53 3.93-5.074zm-37.79 4.377l-.802 3.149-3.24.212 2.745 1.73-.802 3.15 2.498-2.075 2.746 1.732-1.201-3.015 2.498-2.076-3.24.21zm17.521.283l-.8 3.145-3.24.21 2.743 1.733-.798 3.149 2.496-2.079 2.744 1.735-1.2-3.018 2.498-2.07-3.242.209zm-26.544 6.455l-.803 3.149-3.24.213 2.744 1.732-.801 3.146 2.498-2.074 2.744 1.733-1.201-3.018 2.5-2.074-3.242.21zm35.957.024l-.804 3.148-3.239.211 2.745 1.736-.801 3.145 2.498-2.074 2.746 1.734-1.201-3.018 2.496-2.074-3.242.21zm-44.981 6.714l-.805 3.149-3.238.213 2.746 1.73-.803 3.148 2.498-2.076 2.746 1.733-1.2-3.014 2.495-2.074-3.242.207zm54.01 1.213l-.796 3.149-3.243.213 2.747 1.734-.803 3.144 2.496-2.074 2.748 1.734-1.203-3.017 2.498-2.074-3.242.209zm-63.503 5.559l-.803 3.148-3.24.209 2.746 1.73-.803 3.149 2.498-2.075 2.744 1.735-1.2-3.018 2.497-2.074-3.242.21zm72.918.927l-.8 3.147-3.243.213 2.746 1.73-.803 3.149 2.498-2.075 2.746 1.737-1.2-3.022 2.495-2.074-3.242.21zm-82.885 5.871l-.802 3.147-3.24.209 2.747 1.736-.804 3.146 2.498-2.078 2.746 1.737-1.202-3.018 2.498-2.074-3.24.21zm92.295.616l-.8 3.144-3.239.209 2.742 1.734-.798 3.149 2.496-2.075 2.744 1.733-1.198-3.016 2.495-2.076-3.24.211zm-102.175 7.365l-.798 3.146-3.244.209 2.748 1.736-.801 3.147 2.498-2.075 2.746 1.733-1.201-3.018 2.494-2.074-3.24.211zm112.182.968l-.803 3.149-3.238.213 2.746 1.734-.803 3.144 2.496-2.078 2.748 1.736-1.203-3.017 2.498-2.074-3.242.21zm-79.237 15.139c-2.306-.027-1.824 2.441-1.824 2.441.353-1.828 2.183-2.418 2.183-2.418a3.687 3.687 0 00-.359-.023zm45.032.197c-.708.118-1.06.828-1.06.828.708.058 1.06-.828 1.06-.828z" />
   </g>
   <path fill="none" stroke="#fff" stroke-width="1.319967"
      d="M120.8 80.599l-.234 9.088c-.12 1.889 2.004 2.36 2.004 2.36m4.012-17.467l2.598-2.36 2.834.47M83.15 81.66c3.66-.471 5.073-3.777 5.073-3.777l27.146-6.254.946 1.062" />
   <path fill="none" stroke="#fff" stroke-width=".7906468999999999"
      d="M74.894 77.652l.828 2.36-.12-2.597zm77.366 81.733c-2.241 1.533-3.364 4.72-3.6 8.674-.238 3.954.006 7.106.769 9.913.943 3.483 3.421 5.019 3.421 5.019m7.909-19.533c1.119 2.36-.414 5.9-.414 5.9m.295 3.717c1.414 2.774 0 6.728 0 6.728m-55.001-10.444h35.112m-57.418 4.898v7.908m2.95-2.716h1.594v-.943m7.613.943h1.296v-4.25m-16.993-5.9h16.226" />
</svg>