<svg xmlns="http://www.w3.org/2000/svg" viewBox="0 0 256 256">
   <g transform="matrix(2.28164 0 0 2.28164 -187.094 -329.925)">
      <path fill="#00adee"
         d="M138.1 256.8s46.7-16.5 46.7-76.2v-21.3c0-2.4-1.7-4.1-4-4.7-15-.6-29.4-3.5-42.7-10-13.3 5.9-27.7 9.5-42.7 10-2.3 0-4 2.4-4 4.7v21.3c0 59.7 46.7 76.2 46.7 76.2z" />
      <path fill="#fff"
         d="M157.1 188.8c-.6-6.5-5.8-8.9-12.7-9.5v-9.5h-5.8v8.9H134v-8.9h-5.2v8.9h-11v5.9h6.9v29h-5.8v6.5h9.2v9.5h5.2v-9.5h4v8.9h5.8v-8.9c9.2-.6 15.6-3 16.1-11.2 1.2-5.3-1.7-10-6.9-11.2h-.6c3.7-1.8 6-5.3 5.4-8.9zm-8.1 19.5c0 7.1-11.5 5.9-15 5.9v-11.8c4.1-.6 15-1.7 15 5.9zm-2.3-17.1c0 5.9-9.2 5.3-12.7 5.3v-11.2c3.5 0 12.7-.6 12.7 5.9z" />
   </g>
</svg>