<svg xmlns="http://www.w3.org/2000/svg" viewBox="0 0 256 256">
   <path fill="#50af95" fill-rule="evenodd"
      d="M46.996 17.913L.388 115.812a1.898 1.898 0 00.407 2.214l125.876 120.62a1.92 1.92 0 002.658 0l125.876-120.613a1.898 1.898 0 00.407-2.214L209.004 17.92a1.883 1.883 0 00-1.717-1.1H48.728a1.883 1.883 0 00-1.732 1.093z" />
   <path fill="#fff" fill-rule="evenodd"
      d="M144.18 125.865c-.904.068-5.573.347-15.988.347-8.284 0-14.165-.249-16.229-.347-32.013-1.408-55.908-6.98-55.908-13.653 0-6.672 23.895-12.237 55.908-13.668v21.771c2.094.15 8.088.505 16.372.505 9.94 0 14.918-.414 15.815-.497V98.559c31.945 1.423 55.787 6.996 55.787 13.653s-23.835 12.23-55.787 13.646zm0-29.558V76.825h44.581V47.117H67.381v29.708h44.575V96.3c-36.23 1.664-63.476 8.84-63.476 17.44 0 8.6 27.246 15.77 63.476 17.442v62.43h32.216v-62.453c36.148-1.664 63.348-8.833 63.348-17.426 0-8.592-27.178-15.761-63.348-17.433zm0 0z" />
</svg>