<svg xmlns="http://www.w3.org/2000/svg" viewBox="0 0 255 255">
  <circle cx="147.5" cy="147.5" r="104" fill="#fff" />
  <path
    d="M147.6 231A83.7 83.7 0 0164 147.5c4.6-110.8 162.6-110.8 167.2 0a83.7 83.7 0 01-83.6 83.5zm0-157.8a74.4 74.4 0 00-74.4 74.3c4.1 98.6 144.7 98.5 148.8 0a74.4 74.4 0 00-74.4-74.3z" />
  <path
    d="M147.3 255a107.5 107.5 0 01-82.6-38.5h-.1l-1.3-1.7-.3-.3-.7-1a117.1 117.1 0 01-9.1-13.4 107.3 107.3 0 01-12.4-35.5C26 76.1 122.2 8.9 200.2 53.2c2.4 1.3 4.8 2.8 7.1 4.3h.1l3.9 2.7c83.2 61.6 39.7 194.5-64 194.8zm-75.8-44.7C130 280.8 246 238.8 246 147.2a98.8 98.8 0 00-40.2-79.4l-3.8-2.7a66.5 66.5 0 00-6.3-3.9c-71.4-40.5-159.4 21-145.8 101.9a96.4 96.4 0 0011.4 32.4 92.6 92.6 0 007.8 11.8z" />
  <path fill="#ed1e79"
    d="M211.3 65.9l-2.8-1.9-3.8-2.6c-2.2-1.4-4.4-2.8-6.7-4.1C123.5 14.8 31.1 78.9 45.3 163.9a101.6 101.6 0 0012 33.9 105.4 105.4 0 009.5 14.1c-33.2-31.4-56.2-50.2-61.2-87.7a118.1 118.1 0 01.7-35.1A103.3 103.3 0 01107.9 4.6c54.2 0 72.7 30.7 103.4 61.3z" />
  <path
    d="M63.7 215.3c-2.6-2.4-5-4.8-7.5-7C27 180.9 5.9 161 1.1 124.8a117.7 117.7 0 01.7-36.5A107.8 107.8 0 01107.9 0c47.6 0 69.5 23.4 92.7 48.2 4.5 4.7 9.1 9.6 13.9 14.5l-5.9 7-2.8-2-3.6-2.5h-.2a66.5 66.5 0 00-6.3-3.9C124.3 20.7 36.3 82.2 49.9 163.1a96.4 96.4 0 0011.4 32.4 93.9 93.9 0 009.1 13.5zM107.9 9.2a98.6 98.6 0 00-97.1 80.7 112.1 112.1 0 00-.6 33.7c3.5 26.6 16.6 43.3 36.6 63a103.8 103.8 0 01-6-22C27 82.9 109.6 16.2 186.6 46.7 166 25.2 146.9 9.2 107.9 9.2z" />
  <path
    d="M107.4 128.4h23.5v8.3h-15v8.7h12.8v8.3h-12.8v10.1h15.6v8.2h-24.1zM145.1 136.7h-10.3v-8.3h29.1v8.3h-10.3V172h-8.5zM168.5 128.4h8.5v16.8h13v-16.8h8.4V172H190v-18.2h-13V172h-8.5zM2.832 92.244l6.505-6.506 39.365 39.365-6.505 6.505zM2.31 127.504L8.815 121l39.881 39.88-6.505 6.506z" />
</svg>