<svg xmlns="http://www.w3.org/2000/svg" width="256" height="256">
   <path fill="#efe812"
      d="M71.206 38.703c4.9-5.5 9.4-10.2 13.7-14.2-72.1-2.3-51.1 49.8-74.7 102.6-27 61 3.2 84.2 48.2 91.4a97.9 97.9 0 01-15.2-24.9c-29-36.7-17.3-103.6 28-154.9" />
   <path fill="#ede70a"
      d="M244.506 103.603a205.5 205.5 0 01-36.3 60.9 174.1 174.1 0 01-44.2 38.3 118.5 118.5 0 01-65.2 18.5 245.5 245.5 0 01-40.2-2.8 81.4 81.4 0 0026.9 21.1c65.1 31.5 69.2-27 138.1-56.7 38.6-16.6 38.8-49.2 20.9-79.3m-80.5-60.8a86.6 86.6 0 0126.9 9.6 149.5 149.5 0 0153.6 51.2c11.8-33 6.3-59-19.3-63.7-28.3-5.1-50.3-6.8-71.5-21.6-26.1-18.1-49-12.2-68.8 6.2l4.3.2c27.5 1.7 53.8 7.1 74.6 18.1" />
   <path fill="#dec21c"
      d="M71.206 38.703c-45.3 51.3-57 118.2-27.9 154.9a111.8 111.8 0 016.3-99.5c24.6-40.9 73.9-58.7 114.4-51.3-21-11-47.3-16.4-74.7-18l-4.3-.2c-4.4 4-8.8 8.6-13.8 14.1" />
   <path fill="#e5cb22"
      d="M190.906 52.303a89 89 0 00-26.9-9.5c27.6 14.6 45.9 39.2 45.9 78a97.7 97.7 0 01-45.9 82 174.1 174.1 0 0044.2-38.3 205.5 205.5 0 0036.3-60.9 149.7 149.7 0 00-53.6-51.3" />
   <path fill="#cca727"
      d="M164.006 42.803c-40.5-7.4-89.8 10.4-114.4 51.1a111.6 111.6 0 00-6.3 99.7 96.5 96.5 0 0015.3 24.9 245.5 245.5 0 0040.2 2.8 118.5 118.5 0 0065.2-18.5 97.7 97.7 0 0045.9-82c0-38.8-18.3-63.4-45.9-78m-4.6 141.5a67.3 67.3 0 01-92.8-19.9c-20.1-31.1-10.2-71.1 20-92.5 33.8-24 77.1-14.5 92.9 20 15.8 34.5 11.1 72.5-20.1 92.4" />
</svg>