<svg xmlns="http://www.w3.org/2000/svg" viewBox="0 0 71.98 71.98">
  <path fill="#efe812"
    d="M20.003 10.876c1.37-1.56 2.63-2.88 3.83-4-20.26-.65-14.36 14-21 28.87-7.6 17.14.9 23.67 13.56 25.71a27.56 27.56 0 01-4.28-7c-8.17-10.33-4.86-29.16 7.89-43.58" />
  <path fill="#ede70a"
    d="M68.753 29.136a57.87 57.87 0 01-10.23 17.13 49.09 49.09 0 01-12.43 10.77 33.56 33.56 0 01-18.34 5.21 72.2 72.2 0 01-11.32-.79 23.14 23.14 0 007.57 5.93c18.32 8.86 19.47-7.59 38.85-15.94 10.88-4.69 10.92-13.85 5.89-22.31m-22.65-17.1a24.07 24.07 0 017.56 2.68 42.17 42.17 0 0115.1 14.42c3.3-9.3 1.76-16.6-5.45-17.92-7.94-1.45-14.14-1.92-20.1-6.08-7.34-5.1-13.78-3.44-19.36 1.75l1.21.05c7.74.46 15.14 2 21 5.08" />
  <path fill="#dec21c"
    d="M20.003 10.876c-12.75 14.42-16.06 33.25-7.85 43.58a31.36 31.36 0 011.77-28c6.91-11.52 20.78-16.52 32.17-14.42-5.9-3.12-13.3-4.62-21-5.08l-1.21-.06c-1.24 1.14-2.5 2.42-3.88 3.98" />
  <path fill="#e5cb22"
    d="M53.653 14.696a24.07 24.07 0 00-7.56-2.66c7.76 4.08 12.91 11 12.91 21.94a27.53 27.53 0 01-12.91 23.06 48.89 48.89 0 0012.43-10.77 57.87 57.87 0 0010.23-17.13 42.17 42.17 0 00-15.1-14.44" />
  <path fill="#cca727"
    d="M46.093 12.036c-11.39-2.1-25.26 2.9-32.17 14.37a31.33 31.33 0 00-1.77 28.05 27.28 27.28 0 004.28 7 72.2 72.2 0 0011.32.79 33.56 33.56 0 0018.34-5.21 27.52 27.52 0 0012.91-23.06c0-10.94-5.15-17.86-12.91-21.94m-1.28 39.8a18.94 18.94 0 01-26.12-5.62c-5.66-8.73-2.86-20 5.63-26 9.5-6.75 21.68-4.09 26.12 5.62 4.33 9.46 3.14 20.39-5.63 26" />
</svg>